<svg xmlns="http://www.w3.org/2000/svg" viewBox="0 0 400 400"><defs><style>.cls-1{fill:#ffd58c;}.cls-2{fill:#faa264;}.cls-3{fill:#fa935f;}.cls-4{fill:#67bbef;}.cls-5{fill:#ffbb80;}.cls-6{fill:#fabf61;}.cls-7{fill:#ff8592;}.cls-8{fill:#ffa8b2;}.cls-9{fill:#eb7a75;}.cls-10{fill:#ff9d69;}.cls-11{fill:#5d76b0;}.cls-12{fill:#7c87d9;}</style></defs><title>lvl1_1</title><g id="bg"><rect class="cls-1" width="44.44" height="44.44"/><rect class="cls-1" x="44.44" width="44.44" height="44.44"/><rect class="cls-1" x="88.89" width="44.44" height="44.44"/><rect class="cls-1" x="133.33" width="44.44" height="44.44"/><rect class="cls-1" x="177.78" width="44.44" height="44.44"/><rect class="cls-1" x="222.22" width="44.44" height="44.44"/><rect class="cls-1" x="266.67" width="44.44" height="44.44"/><rect class="cls-1" x="311.11" width="44.44" height="44.44"/><rect class="cls-1" x="355.56" width="44.44" height="44.44"/><rect class="cls-1" y="44.44" width="44.44" height="44.44"/><rect class="cls-1" x="44.44" y="44.44" width="44.44" height="44.44"/><rect class="cls-1" x="88.89" y="44.44" width="44.44" height="44.44"/><rect class="cls-1" x="133.33" y="44.44" width="44.44" height="44.44"/><rect class="cls-1" x="177.78" y="44.44" width="44.44" height="44.44"/><rect class="cls-1" x="222.22" y="44.44" width="44.44" height="44.44"/><rect class="cls-1" x="266.67" y="44.44" width="44.44" height="44.44"/><rect class="cls-1" x="311.11" y="44.44" width="44.44" height="44.44"/><rect class="cls-1" x="355.56" y="44.44" width="44.44" height="44.44"/><rect class="cls-1" y="88.89" width="44.44" height="44.44"/><rect class="cls-2" x="44.44" y="88.89" width="44.44" height="44.44"/><rect class="cls-1" x="88.89" y="88.89" width="44.44" height="44.44"/><rect class="cls-2" x="133.33" y="88.89" width="44.44" height="44.44"/><rect class="cls-1" x="177.78" y="88.89" width="44.44" height="44.44"/><rect class="cls-2" x="222.22" y="88.89" width="44.44" height="44.44"/><rect class="cls-1" x="266.67" y="88.89" width="44.44" height="44.44"/><rect class="cls-1" x="311.11" y="88.89" width="44.44" height="44.44"/><rect class="cls-1" x="355.56" y="88.89" width="44.44" height="44.44"/><rect class="cls-1" y="133.33" width="44.44" height="44.44"/><rect class="cls-3" x="44.44" y="133.33" width="44.44" height="44.44"/><rect class="cls-2" x="88.89" y="133.33" width="44.44" height="44.44"/><rect class="cls-3" x="133.33" y="133.33" width="44.44" height="44.44"/><rect class="cls-2" x="177.78" y="133.33" width="44.44" height="44.44"/><rect class="cls-3" x="222.22" y="133.33" width="44.44" height="44.44"/><rect class="cls-2" x="266.67" y="133.33" width="44.44" height="44.44"/><rect class="cls-4" x="311.11" y="133.33" width="44.44" height="44.44"/><rect class="cls-1" x="355.56" y="133.33" width="44.44" height="44.44"/><rect class="cls-1" y="177.78" width="44.44" height="44.44"/><rect class="cls-2" x="44.44" y="177.78" width="44.44" height="44.44"/><rect class="cls-1" x="88.89" y="177.78" width="44.44" height="44.44"/><rect class="cls-2" x="133.33" y="177.78" width="44.44" height="44.44"/><rect class="cls-1" x="177.78" y="177.78" width="44.44" height="44.44"/><rect class="cls-2" x="222.22" y="177.78" width="44.44" height="44.44"/><rect class="cls-1" x="266.67" y="177.78" width="44.44" height="44.44"/><rect class="cls-1" x="311.11" y="177.78" width="44.44" height="44.44"/><rect class="cls-1" x="355.56" y="177.78" width="44.44" height="44.44"/><rect class="cls-1" y="222.22" width="44.44" height="44.44"/><rect class="cls-1" x="44.44" y="222.22" width="44.44" height="44.44"/><rect class="cls-1" x="88.89" y="222.22" width="44.44" height="44.44"/><rect class="cls-1" x="133.33" y="222.22" width="44.44" height="44.44"/><rect class="cls-1" x="177.78" y="222.22" width="44.44" height="44.44"/><rect class="cls-1" x="222.22" y="222.22" width="44.44" height="44.44"/><rect class="cls-1" x="266.67" y="222.22" width="44.44" height="44.44"/><rect class="cls-1" x="311.11" y="222.22" width="44.44" height="44.44"/><rect class="cls-1" x="355.56" y="222.22" width="44.44" height="44.44"/><rect class="cls-1" y="266.67" width="44.44" height="44.44"/><rect class="cls-1" x="44.44" y="266.67" width="44.44" height="44.44"/><rect class="cls-1" x="88.89" y="266.67" width="44.44" height="44.44"/><rect class="cls-1" x="133.33" y="266.67" width="44.44" height="44.44"/><rect class="cls-1" x="177.78" y="266.67" width="44.44" height="44.44"/><rect class="cls-1" x="222.22" y="266.67" width="44.44" height="44.44"/><rect class="cls-1" x="266.67" y="266.67" width="44.44" height="44.44"/><rect class="cls-1" x="311.11" y="266.67" width="44.44" height="44.44"/><rect class="cls-1" x="355.56" y="266.67" width="44.44" height="44.44"/><rect class="cls-1" y="311.11" width="44.44" height="44.44"/><rect class="cls-1" x="44.44" y="311.11" width="44.44" height="44.44"/><rect class="cls-1" x="88.89" y="311.11" width="44.44" height="44.44"/><rect class="cls-1" x="133.33" y="311.11" width="44.44" height="44.44"/><rect class="cls-1" x="177.78" y="311.11" width="44.44" height="44.44"/><rect class="cls-1" x="222.22" y="311.11" width="44.44" height="44.44"/><rect class="cls-1" x="266.67" y="311.11" width="44.44" height="44.44"/><rect class="cls-1" x="311.11" y="311.11" width="44.44" height="44.44"/><rect class="cls-1" x="355.56" y="311.11" width="44.44" height="44.44"/><rect class="cls-1" y="355.56" width="44.44" height="44.44"/><rect class="cls-1" x="44.44" y="355.56" width="44.44" height="44.44"/><rect class="cls-1" x="88.89" y="355.56" width="44.44" height="44.44"/><rect class="cls-1" x="133.33" y="355.56" width="44.44" height="44.44"/><rect class="cls-1" x="177.78" y="355.56" width="44.44" height="44.44"/><rect class="cls-1" x="222.22" y="355.56" width="44.44" height="44.44"/><rect class="cls-1" x="266.67" y="355.56" width="44.44" height="44.44"/><rect class="cls-1" x="311.11" y="355.56" width="44.44" height="44.44"/><rect class="cls-1" x="355.56" y="355.56" width="44.44" height="44.44"/><path class="cls-5" d="M375.81,183a14.34,14.34,0,0,0-8,2.42,14.53,14.53,0,0,0-5.33,6.47h26.67A14.53,14.53,0,0,0,375.81,183Z"/><path class="cls-5" d="M213.49,279.29a14.42,14.42,0,0,0-13.34,8.89h26.66a14.53,14.53,0,0,0-13.32-8.89Z"/><path class="cls-5" d="M93.68,1.09A14.44,14.44,0,0,0,80.34,10H107A14.53,14.53,0,0,0,93.68,1.09Z"/><path class="cls-5" d="M333.34,306.67a14.28,14.28,0,0,0-8,2.42,14.47,14.47,0,0,0-5.33,6.47h26.67a14.53,14.53,0,0,0-13.33-8.89Z"/><path class="cls-6" d="M172.65,266.67A27.34,27.34,0,0,1,200,294v15.17a24.14,24.14,0,0,0,24.15,24.14h15.17a27.36,27.36,0,0,1,27.35,27.35V400H0V266.67Z"/><path class="cls-7" d="M200,315.13V330.3a24.15,24.15,0,0,0,24.15,24.15h15.17a27.36,27.36,0,0,1,27.35,27.35V400H0V287.78H172.65A27.35,27.35,0,0,1,200,315.13Z"/><path class="cls-8" d="M99.74,327.24a14.26,14.26,0,0,1-13-8.62h26A14.26,14.26,0,0,1,99.74,327.24Z"/><path class="cls-8" d="M50,345.15a14.26,14.26,0,0,1-13-8.62H63A14.26,14.26,0,0,1,50,345.15Z"/><path class="cls-8" d="M159.09,371a14.27,14.27,0,0,1-13-8.62h26A14.27,14.27,0,0,1,159.09,371Z"/><ellipse class="cls-5" cx="341.63" cy="56.69" rx="42.74" ry="8.9"/><path class="cls-9" d="M360.94,33.72l5.86,18.55c0,17-71.32,17-71.32,0l4.76-18.55Z"/><ellipse class="cls-10" cx="330.59" cy="33.72" rx="30.35" ry="12.58"/><ellipse class="cls-9" cx="331.08" cy="32.93" rx="22.74" ry="9.2"/><path class="cls-11" d="M351.61,36.88c-3.65,3.1-11.47,5.25-20.53,5.25s-17.05-2.2-20.65-5.35C323.92,32,339.58,30.53,351.61,36.88Z"/><path class="cls-5" d="M219.87,5.54a14.31,14.31,0,0,0-8,2.42,14.5,14.5,0,0,0-5.33,6.46H233.2a14.5,14.5,0,0,0-13.33-8.88Z"/><path class="cls-12" d="M343.75,339.87c-5.37,0-14.27-5.92-15.74-11.08-2.14-7.51.33-15.8,4.81-22.32,10.69-15.53,10.63-31.36,22.87-32.91s33.67,15.21,34.09,54.78c.07,6.44-5.52,11.53-12,11.53Z"/><path class="cls-11" d="M355.69,273.56c-8.71,1.1-11.21,9.45-15.76,19.76,11.19-3.34,23.44-6.45,33.51-12C367.37,275.41,360.74,272.92,355.69,273.56Z"/><path class="cls-11" d="M328,317a22.92,22.92,0,0,0,0,11.8c.78,2.74,3.65,5.68,7,7.85,14-2.94,24.1-13.57,35.37-20.62,5-3.33,10.94-5.5,17.19-7.37a66.29,66.29,0,0,0-5-14.48C366.26,304.58,346.88,310.81,328,317Z"/><path class="cls-9" d="M349.36,339.87A26.56,26.56,0,0,0,328,328.79c-14.52-.25-15.71,11.08-15.71,11.08Z"/><path class="cls-5" d="M99.61,261.41a14.44,14.44,0,0,0-13.34,8.89h26.67a14.53,14.53,0,0,0-13.33-8.89Z"/><ellipse class="cls-5" cx="50.69" cy="47.82" rx="21.37" ry="4.45"/><path class="cls-9" d="M60.35,36.34l2.93,9.27c0,8.52-35.66,8.52-35.66,0L30,36.34Z"/><ellipse class="cls-10" cx="45.18" cy="36.34" rx="15.17" ry="6.29"/><ellipse class="cls-9" cx="45.42" cy="35.94" rx="11.37" ry="4.6"/><path class="cls-11" d="M55.69,37.92c-1.83,1.55-5.74,2.62-10.27,2.62s-8.52-1.1-10.32-2.68C41.84,35.48,49.67,34.74,55.69,37.92Z"/></g></svg>