<svg xmlns="http://www.w3.org/2000/svg" viewBox="0 0 400 400"><defs><style>.cls-1{fill:#ffd58c;}.cls-2{fill:#67bbef;}.cls-3{fill:#faa264;}.cls-4{fill:#fa935f;}.cls-5{fill:#ffbb80;}.cls-6{fill:#7493e3;}.cls-7{fill:#4875b5;}.cls-8{fill:#ed7d7a;}.cls-9{fill:#d8566f;}.cls-10{fill:#eb7a75;}.cls-11{fill:#e35f6d;}.cls-12{fill:#cf576e;}.cls-13{fill:#7c87d9;}.cls-14{fill:#5d76b0;}.cls-15{fill:#ba636e;}</style></defs><title>lvl10</title><g id="Слой_1" data-name="Слой 1"><rect class="cls-1" width="44.42" height="44.42"/><rect class="cls-1" x="44.43" width="44.42" height="44.42"/><rect class="cls-1" x="88.85" width="44.42" height="44.42"/><rect class="cls-1" x="133.28" width="44.42" height="44.42"/><rect class="cls-1" x="177.7" width="44.42" height="44.42"/><rect class="cls-1" x="222.12" width="44.42" height="44.42"/><rect class="cls-1" x="266.55" width="44.42" height="44.42"/><rect class="cls-1" x="310.97" width="44.42" height="44.42"/><rect class="cls-1" x="355.4" width="44.42" height="44.42"/><rect class="cls-1" y="44.42" width="44.42" height="44.42"/><rect class="cls-1" x="44.43" y="44.42" width="44.42" height="44.42"/><rect class="cls-1" x="88.85" y="44.42" width="44.42" height="44.42"/><rect class="cls-1" x="133.28" y="44.42" width="44.42" height="44.42"/><rect class="cls-2" x="177.7" y="44.42" width="44.42" height="44.42"/><rect class="cls-1" x="222.12" y="44.42" width="44.42" height="44.42"/><rect class="cls-1" x="266.55" y="44.42" width="44.42" height="44.42"/><rect class="cls-1" x="310.97" y="44.42" width="44.42" height="44.42"/><rect class="cls-1" x="355.4" y="44.42" width="44.42" height="44.42"/><rect class="cls-1" y="88.85" width="44.42" height="44.42"/><rect class="cls-1" x="44.43" y="88.85" width="44.42" height="44.42"/><rect class="cls-1" x="88.85" y="88.85" width="44.42" height="44.42"/><rect class="cls-1" x="133.28" y="88.85" width="44.42" height="44.42"/><rect class="cls-3" x="177.7" y="88.85" width="44.42" height="44.42"/><rect class="cls-1" x="222.12" y="88.85" width="44.42" height="44.42"/><rect class="cls-1" x="266.55" y="88.85" width="44.42" height="44.42"/><rect class="cls-1" x="310.97" y="88.85" width="44.42" height="44.42"/><rect class="cls-1" x="355.4" y="88.85" width="44.42" height="44.42"/><rect class="cls-1" y="133.27" width="44.42" height="44.42"/><rect class="cls-3" x="44.43" y="133.27" width="44.42" height="44.42"/><rect class="cls-1" x="88.85" y="133.27" width="44.42" height="44.42"/><rect class="cls-1" x="133.28" y="133.27" width="44.42" height="44.42"/><rect class="cls-4" x="177.7" y="133.27" width="44.42" height="44.42"/><rect class="cls-1" x="222.12" y="133.27" width="44.42" height="44.42"/><rect class="cls-1" x="266.55" y="133.27" width="44.42" height="44.42"/><rect class="cls-3" x="310.97" y="133.27" width="44.42" height="44.42"/><rect class="cls-1" x="355.4" y="133.27" width="44.42" height="44.42"/><rect class="cls-1" y="177.7" width="44.42" height="44.42"/><rect class="cls-4" x="44.43" y="177.7" width="44.42" height="44.42"/><rect class="cls-1" x="88.85" y="177.7" width="44.42" height="44.42"/><rect class="cls-1" x="133.28" y="177.7" width="44.42" height="44.42"/><rect class="cls-3" x="177.7" y="177.7" width="44.42" height="44.42"/><rect class="cls-1" x="222.12" y="177.7" width="44.42" height="44.42"/><rect class="cls-1" x="266.55" y="177.7" width="44.42" height="44.42"/><rect class="cls-4" x="310.97" y="177.7" width="44.42" height="44.42"/><rect class="cls-1" x="355.4" y="177.7" width="44.42" height="44.42"/><rect class="cls-1" y="222.12" width="44.42" height="44.42"/><rect class="cls-3" x="44.43" y="222.12" width="44.42" height="44.42"/><rect class="cls-1" x="88.85" y="222.12" width="44.42" height="44.42"/><rect class="cls-1" x="133.28" y="222.12" width="44.42" height="44.42"/><rect class="cls-4" x="177.7" y="222.12" width="44.42" height="44.42"/><rect class="cls-1" x="222.12" y="222.12" width="44.42" height="44.42"/><rect class="cls-1" x="266.55" y="222.12" width="44.42" height="44.42"/><rect class="cls-3" x="310.97" y="222.12" width="44.42" height="44.42"/><rect class="cls-1" x="355.4" y="222.12" width="44.42" height="44.42"/><rect class="cls-1" y="266.55" width="44.42" height="44.42"/><rect class="cls-4" x="44.43" y="266.55" width="44.42" height="44.42"/><rect class="cls-1" x="88.85" y="266.55" width="44.42" height="44.42"/><rect class="cls-1" x="133.28" y="266.55" width="44.42" height="44.42"/><rect class="cls-3" x="177.7" y="266.55" width="44.42" height="44.42"/><rect class="cls-1" x="222.12" y="266.55" width="44.42" height="44.42"/><rect class="cls-1" x="266.55" y="266.55" width="44.42" height="44.42"/><rect class="cls-4" x="310.97" y="266.55" width="44.42" height="44.42"/><rect class="cls-1" x="355.4" y="266.55" width="44.42" height="44.42"/><rect class="cls-1" y="310.97" width="44.42" height="44.42"/><rect class="cls-3" x="44.43" y="310.97" width="44.42" height="44.42"/><rect class="cls-4" x="88.85" y="310.97" width="44.42" height="44.42"/><rect class="cls-3" x="133.28" y="310.97" width="44.42" height="44.42"/><rect class="cls-4" x="177.7" y="310.97" width="44.42" height="44.42"/><rect class="cls-3" x="222.12" y="310.97" width="44.42" height="44.42"/><rect class="cls-4" x="266.55" y="310.97" width="44.42" height="44.42"/><rect class="cls-3" x="310.97" y="310.97" width="44.42" height="44.42"/><rect class="cls-1" x="355.4" y="310.97" width="44.42" height="44.42"/><rect class="cls-1" y="355.4" width="44.42" height="44.42"/><rect class="cls-1" x="44.43" y="355.4" width="44.42" height="44.42"/><rect class="cls-1" x="88.85" y="355.4" width="44.42" height="44.42"/><rect class="cls-1" x="133.28" y="355.4" width="44.42" height="44.42"/><rect class="cls-1" x="177.7" y="355.4" width="44.42" height="44.42"/><rect class="cls-1" x="222.12" y="355.4" width="44.42" height="44.42"/><rect class="cls-1" x="266.55" y="355.4" width="44.42" height="44.42"/><rect class="cls-1" x="310.97" y="355.4" width="44.42" height="44.42"/><rect class="cls-1" x="355.4" y="355.4" width="44.42" height="44.42"/><path class="cls-5" d="M22.22,117.12A14.43,14.43,0,0,0,8.89,126H35.54a14.54,14.54,0,0,0-13.32-8.88Z"/><path class="cls-5" d="M223.79,388.58a14.45,14.45,0,0,0-13.34,8.88h26.66a14.54,14.54,0,0,0-13.32-8.88Z"/><path class="cls-5" d="M138.06,1.09A14.42,14.42,0,0,0,124.73,10h26.65a14.53,14.53,0,0,0-13.32-8.89Z"/><path class="cls-5" d="M377.62,306.53a14.45,14.45,0,0,0-13.34,8.88h26.66a14.54,14.54,0,0,0-13.32-8.88Z"/><polygon class="cls-6" points="51.23 69.29 51.23 69.31 51.01 71.15 5.82 64.59 5.93 63.72 5.93 63.7 6.04 62.82 51.46 67.46 51.23 69.29"/><polygon class="cls-6" points="61.3 50.99 61.32 50.98 62.74 49.81 33.02 15.15 32.33 15.71 32.32 15.72 31.64 16.29 59.87 52.17 61.3 50.99"/><circle class="cls-2" cx="81.26" cy="73.89" r="2.87"/><ellipse class="cls-6" cx="66.5" cy="65.75" rx="16.63" ry="16.86" transform="translate(-23.16 92.33) rotate(-61.18)"/><ellipse class="cls-2" cx="72.51" cy="73.28" rx="2.96" ry="3.58" transform="translate(-3.14 143.31) rotate(-88.09)"/><path class="cls-7" d="M74.42,49.09a2,2,0,0,0-1.7,1L56,78.87A2.09,2.09,0,1,0,59.6,81L76.33,52.23a2.09,2.09,0,0,0-.76-2.86A2.07,2.07,0,0,0,74.42,49.09Z"/><circle class="cls-7" cx="6.66" cy="63.73" r="3.45"/><circle class="cls-7" cx="32.32" cy="15.99" r="3.45"/><path class="cls-5" d="M85.82,71.5A18.31,18.31,0,0,1,102.7,82.74H68.94A18.38,18.38,0,0,1,85.82,71.5Z"/><polygon class="cls-8" points="137.75 399.82 104.87 370.4 71.57 370.4 41.6 355.4 4.48 384.77 4.48 399.82 137.75 399.82"/><polygon class="cls-9" points="45.98 399.82 76.25 379.95 107.81 399.82 45.98 399.82"/><path class="cls-5" d="M252.35,153.07a14.28,14.28,0,0,0-8,2.42A14.43,14.43,0,0,0,239,162h26.65a14.47,14.47,0,0,0-13.31-8.88Z"/><path class="cls-10" d="M88.85,256.73c0-1.44,18.06-34.61,18.06-34.61h36.22l10.32,37H177.7V311H88.85Z"/><path class="cls-11" d="M106.91,222.12h12.7l9.64,44.43,7-9.76,17.23,2.33s1.87,27.86,2,29.35-6.83,22.5-6.83,22.5H88.85V256.73Z"/><polygon class="cls-12" points="88.85 310.97 88.85 288.47 106.91 258.55 128.62 277.47 155.49 288.47 170.84 310.97 88.85 310.97"/><polygon class="cls-10" points="106.91 258.55 115.41 258.55 155.49 288.47 128.62 277.47 117.07 273.62 106.91 258.55"/><polygon class="cls-10" points="222.13 310.97 229.87 276.45 238.35 273.19 238.35 232.22 258.68 222.12 280.18 222.12 285.05 229.79 296.81 229.79 300.06 266.55 306.14 258.59 310.97 258.59 310.97 310.97 222.13 310.97"/><polygon class="cls-11" points="284.1 310.97 229.87 276.45 238.35 273.19 279.22 280.33 272.41 222.12 280.18 222.12 285.05 229.79 296.81 229.79 300.06 266.55 306.14 258.59 310.97 258.59 310.97 310.97 284.1 310.97"/><polygon class="cls-12" points="280.28 222.12 284.11 270.24 299.82 277.7 306.21 310.97 250.3 310.97 253.54 291.52 270.8 284.62 267.03 253.86 272.47 253.62 272.41 222.12 280.28 222.12"/><ellipse class="cls-5" cx="326.09" cy="72.51" rx="43.09" ry="4.3"/><path class="cls-13" d="M335.78,76.12H289.72c-7.12.55-10.84-8-10.78-14.82s4-12.91,8-18.56c4.34-6.19,8.9-12.38,15-17s14.06-7.62,21.78-6.38c7.51,1.2,13.86,6.23,18.06,12.26s6.52,13,8.65,20c1.79,5.87,3.47,12.24,1.26,18S344,76.66,335.78,76.12Z"/><path class="cls-14" d="M288.54,40.49l-1.6,2.25a62.06,62.06,0,0,0-5.76,9.51c5.4,6.71,14.1,8.22,22,7.23,19.05-4.3,34.89-1.23,49.54,5.19.26-4.35-1-8.86-2.27-13.11q-.79-2.6-1.66-5.18C327.91,46.66,306.92,49.25,288.54,40.49Z"/><path class="cls-14" d="M323.73,19.33C316,18.09,308.06,21.06,302,25.71l-.54.43a81.9,81.9,0,0,0,38.76,3.31C336,24.4,330.33,20.39,323.73,19.33Z"/><path class="cls-15" d="M270.42,82.09c.15-7.22,6.75-13.69,14-13.69s13.82,6.46,14,13.68Z"/></g></svg>