<svg xmlns="http://www.w3.org/2000/svg" viewBox="0 0 400 400"><defs><style>.cls-1{fill:#ffd58c;}.cls-2{fill:#faa264;}.cls-3{fill:#67bbef;}.cls-4{fill:#fa935f;}.cls-5{fill:#7c87d9;}.cls-6{fill:#ba636e;}.cls-7{fill:#eb7a75;}.cls-8{fill:#e35f6d;}.cls-9{fill:#cf576e;}.cls-10{fill:#ffbb80;}.cls-11{fill:#ff9d69;}.cls-12{fill:#5d76b0;}</style></defs><title>lvl1</title><g id="bg"><rect class="cls-1" width="44.44" height="44.44"/><rect class="cls-1" x="44.44" width="44.44" height="44.44"/><rect class="cls-1" x="88.89" width="44.44" height="44.44"/><rect class="cls-1" x="133.33" width="44.44" height="44.44"/><rect class="cls-1" x="177.78" width="44.44" height="44.44"/><rect class="cls-1" x="222.22" width="44.44" height="44.44"/><rect class="cls-1" x="266.67" width="44.44" height="44.44"/><rect class="cls-1" x="311.11" width="44.44" height="44.44"/><rect class="cls-1" x="355.56" width="44.44" height="44.44"/><rect class="cls-1" y="44.44" width="44.44" height="44.44"/><rect class="cls-1" x="44.44" y="44.44" width="44.44" height="44.44"/><rect class="cls-1" x="88.89" y="44.44" width="44.44" height="44.44"/><rect class="cls-1" x="133.33" y="44.44" width="44.44" height="44.44"/><rect class="cls-1" x="177.78" y="44.44" width="44.44" height="44.44"/><rect class="cls-1" x="222.22" y="44.44" width="44.44" height="44.44"/><rect class="cls-1" x="266.67" y="44.44" width="44.44" height="44.44"/><rect class="cls-1" x="311.11" y="44.44" width="44.44" height="44.44"/><rect class="cls-1" x="355.56" y="44.44" width="44.44" height="44.44"/><rect class="cls-1" y="88.89" width="44.44" height="44.44"/><rect class="cls-1" x="44.44" y="88.89" width="44.44" height="44.44"/><rect class="cls-1" x="88.89" y="88.89" width="44.44" height="44.44"/><rect class="cls-1" x="133.33" y="88.89" width="44.44" height="44.44"/><rect class="cls-1" x="177.78" y="88.89" width="44.44" height="44.44"/><rect class="cls-1" x="222.22" y="88.89" width="44.44" height="44.44"/><rect class="cls-1" x="266.67" y="88.89" width="44.44" height="44.44"/><rect class="cls-1" x="311.11" y="88.89" width="44.44" height="44.44"/><rect class="cls-1" x="355.56" y="88.89" width="44.44" height="44.44"/><rect class="cls-1" y="133.33" width="44.44" height="44.44"/><rect class="cls-1" x="44.44" y="133.33" width="44.44" height="44.44"/><rect class="cls-1" x="88.89" y="133.33" width="44.44" height="44.44"/><rect class="cls-1" x="133.33" y="133.33" width="44.44" height="44.44"/><rect class="cls-1" x="177.78" y="133.33" width="44.44" height="44.44"/><rect class="cls-2" x="222.22" y="133.33" width="44.44" height="44.44"/><rect class="cls-1" x="266.67" y="133.33" width="44.44" height="44.44"/><rect class="cls-1" x="311.11" y="133.33" width="44.44" height="44.44"/><rect class="cls-1" x="355.56" y="133.33" width="44.44" height="44.44"/><rect class="cls-1" y="177.78" width="44.44" height="44.44"/><rect class="cls-1" x="44.44" y="177.78" width="44.44" height="44.44"/><rect class="cls-1" x="88.89" y="177.78" width="44.44" height="44.44"/><rect class="cls-3" x="133.33" y="177.78" width="44.44" height="44.44"/><rect class="cls-2" x="177.78" y="177.78" width="44.44" height="44.44"/><rect class="cls-4" x="222.22" y="177.78" width="44.44" height="44.44"/><rect class="cls-1" x="266.67" y="177.78" width="44.44" height="44.44"/><rect class="cls-1" x="311.11" y="177.78" width="44.44" height="44.44"/><rect class="cls-1" x="355.56" y="177.78" width="44.44" height="44.44"/><rect class="cls-1" y="222.22" width="44.44" height="44.44"/><rect class="cls-1" x="44.44" y="222.22" width="44.44" height="44.44"/><rect class="cls-1" x="88.89" y="222.22" width="44.44" height="44.44"/><rect class="cls-1" x="133.33" y="222.22" width="44.44" height="44.44"/><rect class="cls-1" x="177.78" y="222.22" width="44.44" height="44.44"/><rect class="cls-1" x="222.22" y="222.22" width="44.44" height="44.44"/><rect class="cls-1" x="266.67" y="222.22" width="44.44" height="44.44"/><rect class="cls-1" x="311.11" y="222.22" width="44.44" height="44.44"/><rect class="cls-1" x="355.56" y="222.22" width="44.44" height="44.44"/><rect class="cls-1" y="266.67" width="44.44" height="44.44"/><rect class="cls-1" x="44.44" y="266.67" width="44.44" height="44.44"/><rect class="cls-1" x="88.89" y="266.67" width="44.44" height="44.44"/><rect class="cls-1" x="133.33" y="266.67" width="44.44" height="44.44"/><rect class="cls-1" x="177.78" y="266.67" width="44.44" height="44.44"/><rect class="cls-1" x="222.22" y="266.67" width="44.44" height="44.44"/><rect class="cls-1" x="266.67" y="266.67" width="44.44" height="44.44"/><rect class="cls-1" x="311.11" y="266.67" width="44.44" height="44.44"/><rect class="cls-1" x="355.56" y="266.67" width="44.44" height="44.44"/><rect class="cls-1" y="311.11" width="44.44" height="44.44"/><rect class="cls-1" x="44.44" y="311.11" width="44.44" height="44.44"/><rect class="cls-1" x="88.89" y="311.11" width="44.44" height="44.44"/><rect class="cls-1" x="133.33" y="311.11" width="44.44" height="44.44"/><rect class="cls-1" x="177.78" y="311.11" width="44.44" height="44.44"/><rect class="cls-1" x="222.22" y="311.11" width="44.44" height="44.44"/><rect class="cls-1" x="266.67" y="311.11" width="44.44" height="44.44"/><rect class="cls-1" x="311.11" y="311.11" width="44.44" height="44.44"/><rect class="cls-1" x="355.56" y="311.11" width="44.44" height="44.44"/><rect class="cls-1" y="355.56" width="44.44" height="44.44"/><rect class="cls-1" x="44.44" y="355.56" width="44.44" height="44.44"/><rect class="cls-1" x="88.89" y="355.56" width="44.44" height="44.44"/><rect class="cls-1" x="133.33" y="355.56" width="44.44" height="44.44"/><rect class="cls-1" x="177.78" y="355.56" width="44.44" height="44.44"/><rect class="cls-1" x="222.22" y="355.56" width="44.44" height="44.44"/><rect class="cls-1" x="266.67" y="355.56" width="44.44" height="44.44"/><rect class="cls-1" x="311.11" y="355.56" width="44.44" height="44.44"/><rect class="cls-1" x="355.56" y="355.56" width="44.44" height="44.44"/><path class="cls-5" d="M351.82,57.18a115.72,115.72,0,0,0,9.74-32.87,109.12,109.12,0,0,0-12.39,12.5,102.07,102.07,0,0,0-3.26-17A104,104,0,0,0,339.37,36a105.93,105.93,0,0,0-9.86-14.55A102.5,102.5,0,0,0,330,38.88a113.17,113.17,0,0,0-15-9.81,103.83,103.83,0,0,0,7.31,15.77,114.29,114.29,0,0,0-17.57-3.55A118,118,0,0,0,323,57.18Z"/><path class="cls-6" d="M339.69,50.29a34,34,0,0,0-11.05,14h65a34.06,34.06,0,0,0-4.73-7.91C377,41.63,355,38.9,339.69,50.29Z"/><path class="cls-7" d="M330.41,50.09a28.85,28.85,0,0,0-24.59,14.19H355A28.82,28.82,0,0,0,330.41,50.09Z"/><polygon class="cls-7" points="133.33 177.78 149.5 119.91 168.62 113.37 177.21 88.89 196.47 88.89 208.09 143.58 222.22 151.07 222.22 177.78 133.33 177.78"/><polygon class="cls-8" points="186.94 88.89 186.94 139.47 172.21 122.59 163.71 123.58 169.76 177.78 222.22 177.78 222.22 151.07 208.09 143.58 196.47 88.89 186.94 88.89"/><polygon class="cls-9" points="151.17 177.78 166.59 149.36 189.78 156.89 216.34 177.78 151.17 177.78"/><ellipse class="cls-10" cx="23.07" cy="128.88" rx="21.37" ry="4.45"/><path class="cls-7" d="M32.73,117.4l2.93,9.27c0,8.53-35.66,8.53-35.66,0l2.38-9.27Z"/><ellipse class="cls-11" cx="17.55" cy="117.4" rx="15.17" ry="6.29"/><ellipse class="cls-7" cx="17.8" cy="117" rx="11.37" ry="4.6"/><path class="cls-12" d="M28.07,119c-1.83,1.55-5.74,2.62-10.27,2.62s-8.52-1.1-10.33-2.67C14.22,116.55,22.05,115.8,28.07,119Z"/><ellipse class="cls-10" cx="67.52" cy="106.66" rx="21.37" ry="4.45"/><path class="cls-7" d="M77.17,95.18l2.94,9.27c0,8.53-35.67,8.53-35.67,0l2.38-9.27Z"/><ellipse class="cls-11" cx="62" cy="95.18" rx="15.17" ry="6.29"/><ellipse class="cls-7" cx="62.24" cy="94.78" rx="11.37" ry="4.6"/><path class="cls-12" d="M72.51,96.76c-1.83,1.55-5.74,2.62-10.27,2.62s-8.52-1.1-10.32-2.68C58.66,94.32,66.49,93.58,72.51,96.76Z"/><path class="cls-10" d="M66.66,295.36A14.44,14.44,0,0,1,80,304.25H53.33a14.53,14.53,0,0,1,13.33-8.89Z"/><path class="cls-10" d="M93.43,324.44a14.44,14.44,0,0,1,13.34,8.89H80.11a14.53,14.53,0,0,1,13.32-8.89Z"/><path class="cls-10" d="M384.8,120a14.44,14.44,0,0,1,13.34,8.89H371.48A14.53,14.53,0,0,1,384.8,120Z"/><path class="cls-10" d="M93.43,10.94a14.44,14.44,0,0,1,13.34,8.89H80.11a14.53,14.53,0,0,1,13.32-8.89Z"/><path class="cls-10" d="M343.73,262.22a14.44,14.44,0,0,1,13.34,8.89H330.4a14.53,14.53,0,0,1,13.33-8.89Z"/><path class="cls-10" d="M222.21,373.33a14.44,14.44,0,0,1,13.35,8.89H208.89a14.53,14.53,0,0,1,13.32-8.89Z"/><path class="cls-10" d="M248.88,364.44a14.44,14.44,0,0,1,13.34,8.89H235.56a14.53,14.53,0,0,1,13.32-8.89Z"/><path class="cls-10" d="M191.1,257.78a14.44,14.44,0,0,1,13.34,8.89H177.78a14.53,14.53,0,0,1,13.32-8.89Z"/><path class="cls-10" d="M244.44,15.39a14.44,14.44,0,0,1,13.34,8.89H231.11a14.53,14.53,0,0,1,13.33-8.89Z"/></g></svg>