<svg xmlns="http://www.w3.org/2000/svg" viewBox="0 0 400 400"><defs><style>.cls-1{fill:#ffd58c;}.cls-2{fill:#faa264;}.cls-3{fill:#fa935f;}.cls-4{fill:#67bbef;}.cls-5{fill:#7c87d9;}.cls-6{fill:#ba636e;}.cls-7{fill:#eb7a75;}.cls-8{fill:#ffbb80;}.cls-9{fill:#7493e3;}.cls-10{fill:#4875b5;}</style></defs><title>lvl2</title><g id="bg"><rect class="cls-1" width="44.44" height="44.44"/><rect class="cls-1" x="44.44" width="44.44" height="44.44"/><rect class="cls-1" x="88.89" width="44.44" height="44.44"/><rect class="cls-1" x="133.33" width="44.44" height="44.44"/><rect class="cls-1" x="177.78" width="44.44" height="44.44"/><rect class="cls-1" x="222.22" width="44.44" height="44.44"/><rect class="cls-1" x="266.67" width="44.44" height="44.44"/><rect class="cls-1" x="311.11" width="44.44" height="44.44"/><rect class="cls-1" x="355.56" width="44.44" height="44.44"/><rect class="cls-1" y="44.44" width="44.44" height="44.44"/><rect class="cls-1" x="44.44" y="44.44" width="44.44" height="44.44"/><rect class="cls-1" x="88.89" y="44.44" width="44.44" height="44.44"/><rect class="cls-1" x="133.33" y="44.44" width="44.44" height="44.44"/><rect class="cls-1" x="177.78" y="44.44" width="44.44" height="44.44"/><rect class="cls-1" x="222.22" y="44.44" width="44.44" height="44.44"/><rect class="cls-1" x="266.67" y="44.44" width="44.44" height="44.44"/><rect class="cls-1" x="311.11" y="44.44" width="44.44" height="44.44"/><rect class="cls-1" x="355.56" y="44.44" width="44.44" height="44.44"/><rect class="cls-1" y="88.89" width="44.44" height="44.44"/><rect class="cls-1" x="44.44" y="88.89" width="44.44" height="44.44"/><rect class="cls-1" x="88.89" y="88.89" width="44.44" height="44.44"/><rect class="cls-1" x="133.33" y="88.89" width="44.44" height="44.44"/><rect class="cls-1" x="177.78" y="88.89" width="44.44" height="44.44"/><rect class="cls-1" x="222.22" y="88.89" width="44.44" height="44.44"/><rect class="cls-1" x="266.67" y="88.89" width="44.44" height="44.44"/><rect class="cls-1" x="311.11" y="88.89" width="44.44" height="44.44"/><rect class="cls-1" x="355.56" y="88.89" width="44.44" height="44.44"/><rect class="cls-1" y="133.33" width="44.44" height="44.44"/><rect class="cls-1" x="44.44" y="133.33" width="44.44" height="44.44"/><rect class="cls-1" x="88.89" y="133.33" width="44.44" height="44.44"/><rect class="cls-2" x="133.33" y="133.33" width="44.44" height="44.44"/><rect class="cls-3" x="177.78" y="133.33" width="44.44" height="44.44"/><rect class="cls-2" x="222.22" y="133.33" width="44.44" height="44.44"/><rect class="cls-1" x="266.67" y="133.33" width="44.44" height="44.44"/><rect class="cls-1" x="311.11" y="133.33" width="44.44" height="44.44"/><rect class="cls-1" x="355.56" y="133.33" width="44.44" height="44.44"/><rect class="cls-1" y="177.78" width="44.44" height="44.44"/><rect class="cls-1" x="44.44" y="177.78" width="44.44" height="44.44"/><rect class="cls-1" x="88.89" y="177.78" width="44.44" height="44.44"/><rect class="cls-1" x="133.33" y="177.78" width="44.44" height="44.44"/><rect class="cls-1" x="177.78" y="177.78" width="44.44" height="44.44"/><rect class="cls-3" x="222.22" y="177.78" width="44.44" height="44.44"/><rect class="cls-4" x="266.67" y="177.78" width="44.44" height="44.44"/><rect class="cls-1" x="311.11" y="177.78" width="44.44" height="44.44"/><rect class="cls-1" x="355.56" y="177.78" width="44.44" height="44.44"/><rect class="cls-1" y="222.22" width="44.44" height="44.44"/><rect class="cls-1" x="44.44" y="222.22" width="44.44" height="44.44"/><rect class="cls-1" x="88.89" y="222.22" width="44.44" height="44.44"/><rect class="cls-1" x="133.33" y="222.22" width="44.44" height="44.44"/><rect class="cls-1" x="177.78" y="222.22" width="44.44" height="44.44"/><rect class="cls-1" x="222.22" y="222.22" width="44.44" height="44.44"/><rect class="cls-1" x="266.67" y="222.22" width="44.44" height="44.44"/><rect class="cls-1" x="311.11" y="222.22" width="44.44" height="44.44"/><rect class="cls-1" x="355.56" y="222.22" width="44.44" height="44.44"/><rect class="cls-1" y="266.67" width="44.44" height="44.44"/><rect class="cls-1" x="44.44" y="266.67" width="44.44" height="44.44"/><rect class="cls-1" x="88.89" y="266.67" width="44.44" height="44.44"/><rect class="cls-1" x="133.33" y="266.67" width="44.44" height="44.44"/><rect class="cls-1" x="177.78" y="266.67" width="44.44" height="44.44"/><rect class="cls-1" x="222.22" y="266.67" width="44.44" height="44.44"/><rect class="cls-1" x="266.67" y="266.67" width="44.44" height="44.44"/><rect class="cls-1" x="311.11" y="266.67" width="44.44" height="44.44"/><rect class="cls-1" x="355.56" y="266.67" width="44.44" height="44.44"/><rect class="cls-1" y="311.11" width="44.44" height="44.44"/><rect class="cls-1" x="44.44" y="311.11" width="44.44" height="44.44"/><rect class="cls-1" x="88.89" y="311.11" width="44.44" height="44.44"/><rect class="cls-1" x="133.33" y="311.11" width="44.44" height="44.44"/><rect class="cls-1" x="177.78" y="311.11" width="44.44" height="44.44"/><rect class="cls-1" x="222.22" y="311.11" width="44.44" height="44.44"/><rect class="cls-1" x="266.67" y="311.11" width="44.44" height="44.44"/><rect class="cls-1" x="311.11" y="311.11" width="44.44" height="44.44"/><rect class="cls-1" x="355.56" y="311.11" width="44.44" height="44.44"/><rect class="cls-1" y="355.56" width="44.44" height="44.44"/><rect class="cls-1" x="44.44" y="355.56" width="44.44" height="44.44"/><rect class="cls-1" x="88.89" y="355.56" width="44.44" height="44.44"/><rect class="cls-1" x="133.33" y="355.56" width="44.44" height="44.44"/><rect class="cls-1" x="177.78" y="355.56" width="44.44" height="44.44"/><rect class="cls-1" x="222.22" y="355.56" width="44.44" height="44.44"/><rect class="cls-1" x="266.67" y="355.56" width="44.44" height="44.44"/><rect class="cls-1" x="311.11" y="355.56" width="44.44" height="44.44"/><rect class="cls-1" x="355.56" y="355.56" width="44.44" height="44.44"/><path class="cls-5" d="M272.35,373.51a115.72,115.72,0,0,1-9.74-32.87A108.64,108.64,0,0,1,275,353.14a103.35,103.35,0,0,1,3.26-17,104.63,104.63,0,0,1,6.55,16.17,106.16,106.16,0,0,1,9.86-14.54,102.5,102.5,0,0,1-.45,17.42,111.16,111.16,0,0,1,15-9.81,105.08,105.08,0,0,1-7.31,15.77,114.07,114.07,0,0,1,17.56-3.55,117.39,117.39,0,0,1-18.31,15.89Z"/><path class="cls-6" d="M284.47,366.62a33.81,33.81,0,0,1,11,14h-65a33.44,33.44,0,0,1,4.73-7.92C247.12,358,269.15,355.23,284.47,366.62Z"/><path class="cls-7" d="M293.76,366.41a28.83,28.83,0,0,1,24.58,14.2H269.18A28.85,28.85,0,0,1,293.76,366.41Z"/><path class="cls-8" d="M346.66,368.89A14.44,14.44,0,0,1,360,377.78H333.33a14.55,14.55,0,0,1,13.33-8.89Z"/><path class="cls-8" d="M226.66,335A14.44,14.44,0,0,1,240,343.84H213.33A14.55,14.55,0,0,1,226.66,335Z"/><path class="cls-8" d="M340.36,164.43a14.44,14.44,0,0,1,13.34,8.89H327a14.53,14.53,0,0,1,13.33-8.89Z"/><path class="cls-8" d="M49,55.39a14.44,14.44,0,0,1,13.34,8.89H35.66A14.53,14.53,0,0,1,49,55.39Z"/><path class="cls-8" d="M299.28,306.67a14.44,14.44,0,0,1,13.34,8.89H286a14.53,14.53,0,0,1,13.32-8.89Z"/><path class="cls-8" d="M313.69,77.14A14.44,14.44,0,0,1,327,86H300.37a14.53,14.53,0,0,1,13.32-8.89Z"/><path class="cls-8" d="M340.36,68.25a14.44,14.44,0,0,1,13.34,8.89H327a14.53,14.53,0,0,1,13.33-8.89Z"/><path class="cls-8" d="M70.19,141a14.44,14.44,0,0,1,13.35,8.89H56.87A14.53,14.53,0,0,1,70.19,141Z"/><path class="cls-8" d="M200,59.83a14.44,14.44,0,0,1,13.34,8.89H186.67A14.53,14.53,0,0,1,200,59.83Z"/><polygon class="cls-9" points="157.28 284.89 157.28 284.91 157.05 286.74 111.84 280.18 111.95 279.31 111.95 279.29 112.06 278.41 157.51 283.05 157.28 284.89"/><polygon class="cls-9" points="167.35 266.58 167.37 266.57 168.79 265.39 139.05 230.72 138.37 231.28 138.36 231.29 137.67 231.86 165.92 267.76 167.35 266.58"/><circle class="cls-4" cx="187.32" cy="289.49" r="2.88"/><ellipse class="cls-9" cx="172.56" cy="281.34" rx="16.64" ry="16.86" transform="translate(-157.12 296.92) rotate(-61.18)"/><ellipse class="cls-4" cx="178.56" cy="288.87" rx="2.97" ry="3.58" transform="translate(-116.09 457.73) rotate(-88.09)"/><path class="cls-10" d="M180.47,264.68a2.08,2.08,0,0,0-1.7,1L162,294.47a2.09,2.09,0,1,0,3.61,2.1l16.73-28.76a2.08,2.08,0,0,0-.75-2.85A2.12,2.12,0,0,0,180.47,264.68Z"/><circle class="cls-10" cx="112.69" cy="279.33" r="3.46"/><circle class="cls-10" cx="138.35" cy="231.56" r="3.46"/><path class="cls-8" d="M191.88,287.1a18.33,18.33,0,0,1,16.89,11.24H175a18.4,18.4,0,0,1,16.89-11.24Z"/></g></svg>