<svg xmlns="http://www.w3.org/2000/svg" viewBox="0 0 400 400"><defs><style>.cls-1{fill:#ffd58c;}.cls-2{fill:#faa264;}.cls-3{fill:#fa935f;}.cls-4{fill:#67bbef;}.cls-5{fill:#ffbb80;}.cls-6{fill:#eb7a75;}.cls-7{fill:#e35f6d;}.cls-8{fill:#cf576e;}.cls-9{fill:#ff9d69;}.cls-10{fill:#5d76b0;}</style></defs><title>lvl3</title><g id="bg"><rect class="cls-1" x="0.07" width="44.44" height="44.44"/><rect class="cls-1" x="44.51" width="44.44" height="44.44"/><rect class="cls-1" x="88.94" width="44.44" height="44.44"/><rect class="cls-1" x="133.38" width="44.44" height="44.44"/><rect class="cls-1" x="177.82" width="44.44" height="44.44"/><rect class="cls-1" x="222.25" width="44.44" height="44.44"/><rect class="cls-1" x="266.69" width="44.44" height="44.44"/><rect class="cls-1" x="311.13" width="44.44" height="44.44"/><rect class="cls-1" x="355.56" width="44.44" height="44.44"/><rect class="cls-1" x="0.07" y="44.44" width="44.44" height="44.44"/><rect class="cls-1" x="44.51" y="44.44" width="44.44" height="44.44"/><rect class="cls-1" x="88.94" y="44.44" width="44.44" height="44.44"/><rect class="cls-1" x="133.38" y="44.44" width="44.44" height="44.44"/><rect class="cls-1" x="177.82" y="44.44" width="44.44" height="44.44"/><rect class="cls-2" x="222.25" y="44.44" width="44.44" height="44.44"/><rect class="cls-1" x="266.69" y="44.44" width="44.44" height="44.44"/><rect class="cls-1" x="311.13" y="44.44" width="44.44" height="44.44"/><rect class="cls-1" x="355.56" y="44.44" width="44.44" height="44.44"/><rect class="cls-1" x="0.07" y="88.87" width="44.44" height="44.44"/><rect class="cls-1" x="44.51" y="88.87" width="44.44" height="44.44"/><rect class="cls-1" x="88.94" y="88.87" width="44.44" height="44.44"/><rect class="cls-1" x="133.38" y="88.87" width="44.44" height="44.44"/><rect class="cls-1" x="177.82" y="88.87" width="44.44" height="44.44"/><rect class="cls-3" x="222.25" y="88.87" width="44.44" height="44.44"/><rect class="cls-1" x="266.69" y="88.87" width="44.44" height="44.44"/><rect class="cls-1" x="311.13" y="88.87" width="44.44" height="44.44"/><rect class="cls-1" x="355.56" y="88.87" width="44.44" height="44.44"/><rect class="cls-1" x="0.07" y="133.31" width="44.44" height="44.44"/><rect class="cls-1" x="44.51" y="133.31" width="44.44" height="44.44"/><rect class="cls-4" x="88.94" y="133.31" width="44.44" height="44.44"/><rect class="cls-2" x="133.38" y="133.31" width="44.44" height="44.44"/><rect class="cls-3" x="177.82" y="133.31" width="44.44" height="44.44"/><rect class="cls-2" x="222.25" y="133.31" width="44.44" height="44.44"/><rect class="cls-3" x="266.69" y="133.31" width="44.44" height="44.44"/><rect class="cls-1" x="311.13" y="133.31" width="44.44" height="44.44"/><rect class="cls-1" x="355.56" y="133.31" width="44.44" height="44.44"/><rect class="cls-1" x="0.07" y="177.75" width="44.44" height="44.44"/><rect class="cls-1" x="44.51" y="177.75" width="44.44" height="44.44"/><rect class="cls-1" x="88.94" y="177.75" width="44.44" height="44.44"/><rect class="cls-1" x="133.38" y="177.75" width="44.44" height="44.44"/><rect class="cls-1" x="177.82" y="177.75" width="44.44" height="44.44"/><rect class="cls-1" x="222.25" y="177.75" width="44.44" height="44.44"/><rect class="cls-1" x="266.69" y="177.75" width="44.44" height="44.44"/><rect class="cls-1" x="311.13" y="177.75" width="44.44" height="44.44"/><rect class="cls-1" x="355.56" y="177.75" width="44.44" height="44.44"/><rect class="cls-1" x="0.07" y="222.18" width="44.44" height="44.44"/><rect class="cls-1" x="44.51" y="222.18" width="44.44" height="44.44"/><rect class="cls-1" x="88.94" y="222.18" width="44.44" height="44.44"/><rect class="cls-1" x="133.38" y="222.18" width="44.44" height="44.44"/><rect class="cls-1" x="177.82" y="222.18" width="44.44" height="44.44"/><rect class="cls-1" x="222.25" y="222.18" width="44.44" height="44.44"/><rect class="cls-1" x="266.69" y="222.18" width="44.44" height="44.44"/><rect class="cls-1" x="311.13" y="222.18" width="44.44" height="44.44"/><rect class="cls-1" x="355.56" y="222.18" width="44.44" height="44.44"/><rect class="cls-1" x="0.07" y="266.62" width="44.44" height="44.44"/><rect class="cls-1" x="44.51" y="266.62" width="44.44" height="44.44"/><rect class="cls-1" x="88.94" y="266.62" width="44.44" height="44.44"/><rect class="cls-1" x="133.38" y="266.62" width="44.44" height="44.44"/><rect class="cls-1" x="177.82" y="266.62" width="44.44" height="44.44"/><rect class="cls-1" x="222.25" y="266.62" width="44.44" height="44.44"/><rect class="cls-1" x="266.69" y="266.62" width="44.44" height="44.44"/><rect class="cls-1" x="311.13" y="266.62" width="44.44" height="44.44"/><rect class="cls-1" x="355.56" y="266.62" width="44.44" height="44.44"/><rect class="cls-1" x="0.07" y="311.06" width="44.44" height="44.44"/><rect class="cls-1" x="44.51" y="311.06" width="44.44" height="44.44"/><rect class="cls-1" x="88.94" y="311.06" width="44.44" height="44.44"/><rect class="cls-1" x="133.38" y="311.06" width="44.44" height="44.44"/><rect class="cls-1" x="177.82" y="311.06" width="44.44" height="44.44"/><rect class="cls-1" x="222.25" y="311.06" width="44.44" height="44.44"/><rect class="cls-1" x="266.69" y="311.06" width="44.44" height="44.44"/><rect class="cls-1" x="311.13" y="311.06" width="44.44" height="44.44"/><rect class="cls-1" x="355.56" y="311.06" width="44.44" height="44.44"/><rect class="cls-1" x="0.07" y="355.49" width="44.44" height="44.44"/><rect class="cls-1" x="44.51" y="355.49" width="44.44" height="44.44"/><rect class="cls-1" x="88.94" y="355.49" width="44.44" height="44.44"/><rect class="cls-1" x="133.38" y="355.49" width="44.44" height="44.44"/><rect class="cls-1" x="177.82" y="355.49" width="44.44" height="44.44"/><rect class="cls-1" x="222.25" y="355.49" width="44.44" height="44.44"/><rect class="cls-1" x="266.69" y="355.49" width="44.44" height="44.44"/><rect class="cls-1" x="311.13" y="355.49" width="44.44" height="44.44"/><rect class="cls-1" x="355.56" y="355.49" width="44.44" height="44.44"/><path class="cls-5" d="M106.81,11.44a14.44,14.44,0,0,1,13.34,8.89H93.49a14.53,14.53,0,0,1,13.32-8.89Z"/><path class="cls-5" d="M343.74,262.18a14.41,14.41,0,0,1,8,2.42,14.56,14.56,0,0,1,5.33,6.46H330.41a14.54,14.54,0,0,1,13.33-8.88Z"/><path class="cls-5" d="M80.15,84.43a14.44,14.44,0,0,1,13.34,8.89H66.83a14.53,14.53,0,0,1,13.32-8.89Z"/><path class="cls-5" d="M333.34,66.66a14.34,14.34,0,0,1,8,2.42,14.56,14.56,0,0,1,5.33,6.46H320a14.66,14.66,0,0,1,5.33-6.45A14.49,14.49,0,0,1,333.34,66.66Z"/><path class="cls-5" d="M22.29,200a14.31,14.31,0,0,1,8,2.42,14.5,14.5,0,0,1,5.33,6.46H9A14.5,14.5,0,0,1,22.29,200Z"/><path class="cls-5" d="M244.46,15.39a14.28,14.28,0,0,1,8,2.42,14.43,14.43,0,0,1,5.33,6.46H231.14a14.5,14.5,0,0,1,13.32-8.88Z"/><polygon class="cls-6" points="133.38 133.31 144.26 70.42 159.09 70.42 165.36 44.44 196.72 44.44 200.03 79.54 207.56 79.54 207.56 66.66 215.54 66.66 222.25 88.87 222.25 133.31 133.38 133.31"/><polygon class="cls-7" points="146.85 133.31 155.6 82.4 170.25 79.14 182.69 44.44 196.72 44.44 200.03 79.54 206.68 94.84 222.25 88.87 222.25 133.31 146.85 133.31"/><polygon class="cls-8" points="133.38 133.31 159.51 113.38 176.98 109.81 189.11 81.28 195.43 80.69 198.41 108.28 222.25 133.31 222.25 133.31 133.38 133.31"/><polygon class="cls-6" points="267.56 399.82 239.91 330.76 206.22 328.52 178.69 310.95 145.58 310.95 127.09 222.07 52.03 222.07 45.38 266.51 20.48 259.03 0.94 310.95 0.94 399.82 267.56 399.82"/><polygon class="cls-7" points="239.91 330.76 195.17 350.92 161.07 323.84 122.71 319.58 106.38 244.28 52.03 222.07 39.61 300.4 9.23 288.93 0.94 310.95 0.94 399.82 267.56 399.82 239.91 330.76"/><polygon class="cls-8" points="233.13 399.82 228.83 367.79 146.85 399.82 233.13 399.82"/><polygon class="cls-8" points="178.69 399.82 146.85 350.92 93.09 331.53 45.38 271.88 39.61 300.4 13.82 321.72 0.94 399.82 178.69 399.82"/><polygon class="cls-6" points="45.38 266.78 39.61 300.4 54.32 351.65 93.09 331.53 45.38 266.78"/><ellipse class="cls-5" cx="197.93" cy="275.9" rx="42.74" ry="8.9"/><path class="cls-6" d="M217.24,252.94l5.87,18.54c0,17-71.31,17-71.31,0l4.76-18.54Z"/><ellipse class="cls-9" cx="186.9" cy="252.94" rx="30.34" ry="12.57"/><ellipse class="cls-6" cx="187.39" cy="252.14" rx="22.73" ry="9.19"/><path class="cls-10" d="M207.92,256.1c-3.66,3.1-11.47,5.24-20.53,5.24s-17-2.19-20.65-5.35C180.23,251.23,195.89,249.74,207.92,256.1Z"/></g></svg>