<svg xmlns="http://www.w3.org/2000/svg" viewBox="0 0 400 400"><defs><style>.cls-1{fill:#ffd58c;}.cls-2{fill:#67bbef;}.cls-3{fill:#faa264;}.cls-4{fill:#fa935f;}.cls-5{fill:#7c87d9;}.cls-6{fill:#ba636e;}.cls-7{fill:#eb7a75;}.cls-8{fill:#ffbb80;}.cls-9{fill:#7493e3;}.cls-10{fill:#4875b5;}</style></defs><title>lvl4</title><g id="bg"><rect class="cls-1" y="0.57" width="44.38" height="44.38"/><rect class="cls-1" x="44.38" y="0.57" width="44.38" height="44.38"/><rect class="cls-1" x="88.76" y="0.57" width="44.38" height="44.38"/><rect class="cls-1" x="133.14" y="0.57" width="44.38" height="44.38"/><rect class="cls-1" x="177.52" y="0.57" width="44.38" height="44.38"/><rect class="cls-1" x="221.9" y="0.57" width="44.38" height="44.38"/><rect class="cls-1" x="266.28" y="0.57" width="44.38" height="44.38"/><rect class="cls-1" x="310.67" y="0.57" width="44.38" height="44.38"/><rect class="cls-1" x="355.05" y="0.57" width="44.38" height="44.38"/><rect class="cls-1" y="44.95" width="44.38" height="44.38"/><rect class="cls-1" x="44.38" y="44.95" width="44.38" height="44.38"/><rect class="cls-2" x="88.76" y="44.95" width="44.38" height="44.38"/><rect class="cls-3" x="133.14" y="44.95" width="44.38" height="44.38"/><rect class="cls-4" x="177.52" y="44.95" width="44.38" height="44.38"/><rect class="cls-3" x="221.9" y="44.95" width="44.38" height="44.38"/><rect class="cls-1" x="266.28" y="44.95" width="44.38" height="44.38"/><rect class="cls-1" x="310.67" y="44.95" width="44.38" height="44.38"/><rect class="cls-1" x="355.05" y="44.95" width="44.38" height="44.38"/><rect class="cls-1" y="89.33" width="44.38" height="44.38"/><rect class="cls-1" x="44.38" y="89.33" width="44.38" height="44.38"/><rect class="cls-1" x="88.76" y="89.33" width="44.38" height="44.38"/><rect class="cls-1" x="133.14" y="89.33" width="44.38" height="44.38"/><rect class="cls-3" x="177.52" y="89.33" width="44.38" height="44.38"/><rect class="cls-1" x="221.9" y="89.33" width="44.38" height="44.38"/><rect class="cls-1" x="266.28" y="89.33" width="44.38" height="44.38"/><rect class="cls-1" x="310.67" y="89.33" width="44.38" height="44.38"/><rect class="cls-1" x="355.05" y="89.33" width="44.38" height="44.38"/><rect class="cls-1" y="133.72" width="44.38" height="44.38"/><rect class="cls-1" x="44.38" y="133.72" width="44.38" height="44.38"/><rect class="cls-1" x="88.76" y="133.72" width="44.38" height="44.38"/><rect class="cls-1" x="133.14" y="133.72" width="44.38" height="44.38"/><rect class="cls-4" x="177.52" y="133.72" width="44.38" height="44.38"/><rect class="cls-1" x="221.9" y="133.72" width="44.38" height="44.38"/><rect class="cls-1" x="266.28" y="133.72" width="44.38" height="44.38"/><rect class="cls-1" x="310.67" y="133.72" width="44.38" height="44.38"/><rect class="cls-1" x="355.05" y="133.72" width="44.38" height="44.38"/><rect class="cls-1" y="178.1" width="44.38" height="44.38"/><rect class="cls-1" x="44.38" y="178.1" width="44.38" height="44.38"/><rect class="cls-1" x="88.76" y="178.1" width="44.38" height="44.38"/><rect class="cls-1" x="133.14" y="178.1" width="44.38" height="44.38"/><rect class="cls-3" x="177.52" y="178.1" width="44.38" height="44.38"/><rect class="cls-1" x="221.9" y="178.1" width="44.38" height="44.38"/><rect class="cls-1" x="266.28" y="178.1" width="44.38" height="44.38"/><rect class="cls-1" x="310.67" y="178.1" width="44.38" height="44.38"/><rect class="cls-1" x="355.05" y="178.1" width="44.38" height="44.38"/><rect class="cls-1" y="222.48" width="44.38" height="44.38"/><rect class="cls-1" x="44.38" y="222.48" width="44.38" height="44.38"/><rect class="cls-1" x="88.76" y="222.48" width="44.38" height="44.38"/><rect class="cls-1" x="133.14" y="222.48" width="44.38" height="44.38"/><rect class="cls-4" x="177.52" y="222.48" width="44.38" height="44.38"/><rect class="cls-1" x="221.9" y="222.48" width="44.38" height="44.38"/><rect class="cls-1" x="266.28" y="222.48" width="44.38" height="44.38"/><rect class="cls-1" x="310.67" y="222.48" width="44.38" height="44.38"/><rect class="cls-1" x="355.05" y="222.48" width="44.38" height="44.38"/><rect class="cls-1" y="266.86" width="44.38" height="44.38"/><rect class="cls-1" x="44.38" y="266.86" width="44.38" height="44.38"/><rect class="cls-1" x="88.76" y="266.86" width="44.38" height="44.38"/><rect class="cls-1" x="133.14" y="266.86" width="44.38" height="44.38"/><rect class="cls-3" x="177.52" y="266.86" width="44.38" height="44.38"/><rect class="cls-1" x="221.9" y="266.86" width="44.38" height="44.38"/><rect class="cls-1" x="266.28" y="266.86" width="44.38" height="44.38"/><rect class="cls-1" x="310.67" y="266.86" width="44.38" height="44.38"/><rect class="cls-1" x="355.05" y="266.86" width="44.38" height="44.38"/><rect class="cls-1" y="311.24" width="44.38" height="44.38"/><rect class="cls-1" x="44.38" y="311.24" width="44.38" height="44.38"/><rect class="cls-1" x="88.76" y="311.24" width="44.38" height="44.38"/><rect class="cls-1" x="133.14" y="311.24" width="44.38" height="44.38"/><rect class="cls-4" x="177.52" y="311.24" width="44.38" height="44.38"/><rect class="cls-1" x="221.9" y="311.24" width="44.38" height="44.38"/><rect class="cls-1" x="266.28" y="311.24" width="44.38" height="44.38"/><rect class="cls-1" x="310.67" y="311.24" width="44.38" height="44.38"/><rect class="cls-1" x="355.05" y="311.24" width="44.38" height="44.38"/><rect class="cls-1" y="355.62" width="44.38" height="44.38"/><rect class="cls-1" x="44.38" y="355.62" width="44.38" height="44.38"/><rect class="cls-1" x="88.76" y="355.62" width="44.38" height="44.38"/><rect class="cls-1" x="133.14" y="355.62" width="44.38" height="44.38"/><rect class="cls-1" x="177.52" y="355.62" width="44.38" height="44.38"/><rect class="cls-1" x="221.9" y="355.62" width="44.38" height="44.38"/><rect class="cls-1" x="266.28" y="355.62" width="44.38" height="44.38"/><rect class="cls-1" x="310.67" y="355.62" width="44.38" height="44.38"/><rect class="cls-1" x="355.05" y="355.62" width="44.38" height="44.38"/><path class="cls-5" d="M343.47,56.52a115.64,115.64,0,0,1-9.73-32.83,108.76,108.76,0,0,1,12.37,12.48,101.79,101.79,0,0,1,3.26-17,104.44,104.44,0,0,1,6.53,16.15,105.87,105.87,0,0,1,9.85-14.53,103.69,103.69,0,0,1-.45,17.41,111.53,111.53,0,0,1,15-9.8A103.85,103.85,0,0,1,373,44.19a114.45,114.45,0,0,1,17.54-3.54,117.72,117.72,0,0,1-18.29,15.87Z"/><path class="cls-6" d="M355.58,49.63a33.93,33.93,0,0,1,11,14H301.74a33.82,33.82,0,0,1,4.72-7.9C318.28,41,340.27,38.26,355.58,49.63Z"/><path class="cls-7" d="M364.85,49.43A28.82,28.82,0,0,1,389.4,63.6H340.31A28.8,28.8,0,0,1,364.85,49.43Z"/><path class="cls-8" d="M302.68,175.66a14.43,14.43,0,0,0-13.32,8.88H316a14.51,14.51,0,0,0-13.31-8.88Z"/><path class="cls-8" d="M123.42,367.32a14.43,14.43,0,0,0-13.32,8.88h26.63a14.54,14.54,0,0,0-13.31-8.88Z"/><path class="cls-8" d="M167.8,1.66a14.43,14.43,0,0,0-13.32,8.88h26.63A14.54,14.54,0,0,0,167.8,1.66Z"/><path class="cls-8" d="M292,274.52a14.43,14.43,0,0,0-13.32,8.88h26.63A14.54,14.54,0,0,0,292,274.52Z"/><path class="cls-8" d="M81.78,218a14.44,14.44,0,0,0-13.32,8.87H95.09A14.51,14.51,0,0,0,81.78,218Z"/><path class="cls-8" d="M20.57,251.93a14.43,14.43,0,0,0-13.32,8.88H33.88a14.54,14.54,0,0,0-13.31-8.88Z"/><path class="cls-8" d="M368.29,185.36A14.44,14.44,0,0,0,355,194.23H381.6a14.48,14.48,0,0,0-13.31-8.87Z"/><path class="cls-8" d="M55.15,30.71a14.43,14.43,0,0,0-13.32,8.88H68.46a14.54,14.54,0,0,0-13.31-8.88Z"/><polygon class="cls-9" points="84.85 171.26 84.85 171.28 84.62 173.12 39.45 166.56 39.55 165.69 39.56 165.67 39.66 164.79 85.08 169.43 84.85 171.26"/><polygon class="cls-9" points="94.91 152.97 94.93 152.96 96.36 151.78 66.64 117.14 65.95 117.7 65.94 117.71 65.26 118.27 93.48 154.14 94.91 152.97"/><ellipse class="cls-9" cx="100.11" cy="167.72" rx="16.63" ry="16.85" transform="translate(-95.09 174.59) rotate(-61.18)"/><ellipse class="cls-2" cx="106.12" cy="175.25" rx="2.96" ry="3.58" transform="translate(-72.56 275.47) rotate(-88.09)"/><path class="cls-10" d="M108,151.07a2.08,2.08,0,0,0-1.71,1L89.6,180.84a2.09,2.09,0,0,0,3.61,2.1l16.72-28.74a2.08,2.08,0,0,0-1.9-3.13Z"/><circle class="cls-10" cx="40.29" cy="165.71" r="3.45"/><circle class="cls-10" cx="65.94" cy="117.97" r="3.45"/><path class="cls-8" d="M114.87,176a13.31,13.31,0,0,1,12.26,8.16H102.6A13.38,13.38,0,0,1,114.87,176Z"/></g></svg>