<svg xmlns="http://www.w3.org/2000/svg" viewBox="0 0 400 400"><defs><style>.cls-1{fill:#ffd58c;}.cls-2{fill:#faa264;}.cls-3{fill:#fa935f;}.cls-4{fill:#67bbef;}.cls-5{fill:#ffbb80;}.cls-6{fill:#e6af57;}.cls-7{fill:#eb7a75;}.cls-8{fill:#ff9d69;}.cls-9{fill:#5d76b0;}.cls-10{fill:#7c87d9;}.cls-11{fill:#ba636e;}</style></defs><title>lvl5</title><g id="Слой_1" data-name="Слой 1"><rect class="cls-1" width="44.44" height="44.44"/><rect class="cls-1" x="44.44" width="44.44" height="44.44"/><rect class="cls-1" x="88.89" width="44.44" height="44.44"/><rect class="cls-1" x="133.33" width="44.44" height="44.44"/><rect class="cls-1" x="177.78" width="44.44" height="44.44"/><rect class="cls-1" x="222.22" width="44.44" height="44.44"/><rect class="cls-1" x="266.67" width="44.44" height="44.44"/><rect class="cls-1" x="311.11" width="44.44" height="44.44"/><rect class="cls-1" x="355.56" width="44.44" height="44.44"/><rect class="cls-1" y="44.44" width="44.44" height="44.44"/><rect class="cls-1" x="44.44" y="44.44" width="44.44" height="44.44"/><rect class="cls-1" x="88.89" y="44.44" width="44.44" height="44.44"/><rect class="cls-1" x="133.33" y="44.44" width="44.44" height="44.44"/><rect class="cls-1" x="177.78" y="44.44" width="44.44" height="44.44"/><rect class="cls-1" x="222.22" y="44.44" width="44.44" height="44.44"/><rect class="cls-1" x="266.67" y="44.44" width="44.44" height="44.44"/><rect class="cls-1" x="311.11" y="44.44" width="44.44" height="44.44"/><rect class="cls-1" x="355.56" y="44.44" width="44.44" height="44.44"/><rect class="cls-1" y="88.89" width="44.44" height="44.44"/><rect class="cls-1" x="44.44" y="88.89" width="44.44" height="44.44"/><rect class="cls-1" x="88.89" y="88.89" width="44.44" height="44.44"/><rect class="cls-1" x="133.33" y="88.89" width="44.44" height="44.44"/><rect class="cls-2" x="177.78" y="88.89" width="44.44" height="44.44"/><rect class="cls-3" x="222.22" y="88.89" width="44.44" height="44.44"/><rect class="cls-1" x="266.67" y="88.89" width="44.44" height="44.44"/><rect class="cls-1" x="311.11" y="88.89" width="44.44" height="44.44"/><rect class="cls-1" x="355.56" y="88.89" width="44.44" height="44.44"/><rect class="cls-1" y="133.33" width="44.44" height="44.44"/><rect class="cls-1" x="44.44" y="133.33" width="44.44" height="44.44"/><rect class="cls-1" x="88.89" y="133.33" width="44.44" height="44.44"/><rect class="cls-1" x="133.33" y="133.33" width="44.44" height="44.44"/><rect class="cls-1" x="177.78" y="133.33" width="44.44" height="44.44"/><rect class="cls-2" x="222.22" y="133.33" width="44.44" height="44.44"/><rect class="cls-1" x="266.67" y="133.33" width="44.44" height="44.44"/><rect class="cls-1" x="311.11" y="133.33" width="44.44" height="44.44"/><rect class="cls-1" x="355.56" y="133.33" width="44.44" height="44.44"/><rect class="cls-1" y="177.78" width="44.44" height="44.44"/><rect class="cls-1" x="44.44" y="177.78" width="44.44" height="44.44"/><rect class="cls-1" x="88.89" y="177.78" width="44.44" height="44.44"/><rect class="cls-1" x="133.33" y="177.78" width="44.44" height="44.44"/><rect class="cls-1" x="177.78" y="177.78" width="44.44" height="44.44"/><rect class="cls-3" x="222.22" y="177.78" width="44.44" height="44.44"/><rect class="cls-2" x="266.67" y="177.78" width="44.44" height="44.44"/><rect class="cls-1" x="311.11" y="177.78" width="44.44" height="44.44"/><rect class="cls-1" x="355.56" y="177.78" width="44.44" height="44.44"/><rect class="cls-1" y="222.22" width="44.44" height="44.44"/><rect class="cls-1" x="44.44" y="222.22" width="44.44" height="44.44"/><rect class="cls-1" x="88.89" y="222.22" width="44.44" height="44.44"/><rect class="cls-1" x="133.33" y="222.22" width="44.44" height="44.44"/><rect class="cls-1" x="177.78" y="222.22" width="44.44" height="44.44"/><rect class="cls-2" x="222.22" y="222.22" width="44.44" height="44.44"/><rect class="cls-1" x="266.67" y="222.22" width="44.44" height="44.44"/><rect class="cls-1" x="311.11" y="222.22" width="44.44" height="44.44"/><rect class="cls-1" x="355.56" y="222.22" width="44.44" height="44.44"/><rect class="cls-1" y="266.67" width="44.44" height="44.44"/><rect class="cls-1" x="44.44" y="266.67" width="44.44" height="44.44"/><rect class="cls-1" x="88.89" y="266.67" width="44.44" height="44.44"/><rect class="cls-1" x="133.33" y="266.67" width="44.44" height="44.44"/><rect class="cls-1" x="177.78" y="266.67" width="44.44" height="44.44"/><rect class="cls-3" x="222.22" y="266.67" width="44.44" height="44.44"/><rect class="cls-1" x="266.67" y="266.67" width="44.44" height="44.44"/><rect class="cls-1" x="311.11" y="266.67" width="44.44" height="44.44"/><rect class="cls-1" x="355.56" y="266.67" width="44.44" height="44.44"/><rect class="cls-1" y="311.11" width="44.44" height="44.44"/><rect class="cls-1" x="44.44" y="311.11" width="44.44" height="44.44"/><rect class="cls-1" x="88.89" y="311.11" width="44.44" height="44.44"/><rect class="cls-1" x="133.33" y="311.11" width="44.44" height="44.44"/><rect class="cls-1" x="177.78" y="311.11" width="44.44" height="44.44"/><rect class="cls-4" x="222.22" y="311.11" width="44.44" height="44.44"/><rect class="cls-1" x="266.67" y="311.11" width="44.44" height="44.44"/><rect class="cls-1" x="311.11" y="311.11" width="44.44" height="44.44"/><rect class="cls-1" x="355.56" y="311.11" width="44.44" height="44.44"/><rect class="cls-1" y="355.56" width="44.44" height="44.44"/><rect class="cls-1" x="44.44" y="355.56" width="44.44" height="44.44"/><rect class="cls-1" x="88.89" y="355.56" width="44.44" height="44.44"/><rect class="cls-1" x="133.33" y="355.56" width="44.44" height="44.44"/><rect class="cls-1" x="177.78" y="355.56" width="44.44" height="44.44"/><rect class="cls-1" x="222.22" y="355.56" width="44.44" height="44.44"/><rect class="cls-1" x="266.67" y="355.56" width="44.44" height="44.44"/><rect class="cls-1" x="311.11" y="355.56" width="44.44" height="44.44"/><rect class="cls-1" x="355.56" y="355.56" width="44.44" height="44.44"/><path class="cls-5" d="M341.17,142.61a14.44,14.44,0,0,0-13.34,8.89h26.66a14.53,14.53,0,0,0-13.32-8.89Z"/><path class="cls-5" d="M165.1,346.28a14.44,14.44,0,0,0-13.35,8.89h26.67a14.53,14.53,0,0,0-13.32-8.89Z"/><path class="cls-5" d="M168,1.09A14.44,14.44,0,0,0,154.7,10h26.67A14.55,14.55,0,0,0,168,1.09Z"/><path class="cls-5" d="M292.38,274.34A14.44,14.44,0,0,0,279,283.23h26.67a14.55,14.55,0,0,0-13.33-8.89Z"/><path class="cls-5" d="M133.34,267.31A14.44,14.44,0,0,0,120,276.2h26.67a14.53,14.53,0,0,0-13.33-8.89Z"/><path class="cls-5" d="M55.23,30.18a14.44,14.44,0,0,0-13.34,8.89H68.56a14.55,14.55,0,0,0-13.33-8.89Z"/><ellipse class="cls-6" cx="346.28" cy="52.39" rx="42.74" ry="8.9"/><path class="cls-7" d="M365.59,29.42,371.46,48c0,17-71.32,17-71.32,0l4.76-18.55Z"/><ellipse class="cls-8" cx="335.24" cy="29.42" rx="30.35" ry="12.58"/><ellipse class="cls-7" cx="335.74" cy="28.63" rx="22.74" ry="9.2"/><path class="cls-9" d="M356.27,32.58c-3.66,3.1-11.48,5.25-20.53,5.25s-17.05-2.2-20.65-5.35C328.57,27.72,344.24,26.23,356.27,32.58Z"/><ellipse class="cls-5" cx="117.55" cy="200.53" rx="43.11" ry="4.3"/><path class="cls-10" d="M127.25,204.15H81.17c-7.12.54-10.85-8-10.79-14.83s4.05-12.91,8-18.56c4.34-6.2,8.9-12.39,15-17s14.07-7.62,21.79-6.39c7.51,1.21,13.87,6.23,18.07,12.27s6.52,13,8.65,20c1.8,5.87,3.47,12.24,1.26,18S135.44,204.69,127.25,204.15Z"/><path class="cls-9" d="M80,168.5l-1.59,2.26a62.52,62.52,0,0,0-5.77,9.5c5.41,6.72,14.11,8.23,22,7.24,19.06-4.3,34.91-1.23,49.57,5.19.25-4.35-1-8.86-2.28-13.11-.53-1.73-1.07-3.46-1.65-5.18C119.38,174.68,98.38,177.27,80,168.5Z"/><path class="cls-9" d="M115.19,147.33c-7.72-1.23-15.67,1.74-21.79,6.39l-.53.43a81.94,81.94,0,0,0,38.77,3.31C127.5,152.41,121.79,148.39,115.19,147.33Z"/><path class="cls-11" d="M61.86,210.12c.15-7.22,6.75-13.7,14-13.7a14.52,14.52,0,0,1,14,13.69Z"/></g></svg>