<svg xmlns="http://www.w3.org/2000/svg" viewBox="0 0 400 400"><defs><style>.cls-1{fill:#ffd58c;}.cls-2{fill:#faa264;}.cls-3{fill:#fa935f;}.cls-4{fill:#67bbef;}.cls-5{fill:#7c87d9;}.cls-6{fill:#ba636e;}.cls-7{fill:#eb7a75;}.cls-8{fill:#ffbb80;}.cls-9{fill:#ff9d69;}.cls-10{fill:#5d76b0;}.cls-11{fill:#ed7d7a;}.cls-12{fill:#d8566f;}.cls-13{fill:#e35f6d;}.cls-14{fill:#cf576e;}</style></defs><title>lvl6</title><g id="bg"><rect class="cls-1" x="0.1" width="44.42" height="44.42"/><rect class="cls-1" x="44.52" width="44.42" height="44.42"/><rect class="cls-1" x="88.95" width="44.42" height="44.42"/><rect class="cls-1" x="133.37" width="44.42" height="44.42"/><rect class="cls-1" x="177.8" width="44.42" height="44.42"/><rect class="cls-1" x="222.22" width="44.42" height="44.42"/><rect class="cls-1" x="266.65" width="44.42" height="44.42"/><rect class="cls-1" x="311.07" width="44.42" height="44.42"/><rect class="cls-1" x="355.5" width="44.42" height="44.42"/><rect class="cls-1" x="0.1" y="44.42" width="44.42" height="44.42"/><rect class="cls-1" x="44.52" y="44.42" width="44.42" height="44.42"/><rect class="cls-1" x="88.95" y="44.42" width="44.42" height="44.42"/><rect class="cls-1" x="133.37" y="44.42" width="44.42" height="44.42"/><rect class="cls-1" x="177.8" y="44.42" width="44.42" height="44.42"/><rect class="cls-1" x="222.22" y="44.42" width="44.42" height="44.42"/><rect class="cls-1" x="266.65" y="44.42" width="44.42" height="44.42"/><rect class="cls-1" x="311.07" y="44.42" width="44.42" height="44.42"/><rect class="cls-1" x="355.5" y="44.42" width="44.42" height="44.42"/><rect class="cls-1" x="0.1" y="88.85" width="44.42" height="44.42"/><rect class="cls-1" x="44.52" y="88.85" width="44.42" height="44.42"/><rect class="cls-2" x="44.51" y="88.85" width="44.42" height="44.42"/><rect class="cls-3" x="88.94" y="88.85" width="44.42" height="44.42"/><rect class="cls-2" x="133.36" y="88.85" width="44.42" height="44.42"/><rect class="cls-3" x="177.79" y="88.85" width="44.42" height="44.42"/><rect class="cls-2" x="222.21" y="88.85" width="44.42" height="44.42"/><rect class="cls-3" x="266.64" y="88.85" width="44.42" height="44.42"/><rect class="cls-2" x="311.06" y="88.85" width="44.42" height="44.42"/><rect class="cls-1" x="0.1" y="133.27" width="44.42" height="44.42"/><rect class="cls-1" x="44.52" y="133.27" width="44.42" height="44.42"/><rect class="cls-1" x="88.95" y="133.27" width="44.42" height="44.42"/><rect class="cls-1" x="133.37" y="133.27" width="44.42" height="44.42"/><rect class="cls-3" x="133.36" y="133.27" width="44.42" height="44.42"/><rect class="cls-1" x="222.22" y="133.27" width="44.42" height="44.42"/><rect class="cls-1" x="266.65" y="133.27" width="44.42" height="44.42"/><rect class="cls-1" x="311.07" y="133.27" width="44.42" height="44.42"/><rect class="cls-3" x="311.06" y="133.27" width="44.42" height="44.42"/><rect class="cls-1" x="0.1" y="177.7" width="44.42" height="44.42"/><rect class="cls-1" x="44.52" y="177.7" width="44.42" height="44.42"/><rect class="cls-1" x="88.95" y="177.7" width="44.42" height="44.42"/><rect class="cls-1" x="133.37" y="177.7" width="44.42" height="44.42"/><rect class="cls-2" x="133.36" y="177.7" width="44.42" height="44.42"/><rect class="cls-1" x="222.22" y="177.7" width="44.42" height="44.42"/><rect class="cls-1" x="266.65" y="177.7" width="44.42" height="44.42"/><rect class="cls-1" x="311.07" y="177.7" width="44.42" height="44.42"/><rect class="cls-1" x="355.5" y="177.7" width="44.42" height="44.42"/><rect class="cls-1" x="0.1" y="222.12" width="44.42" height="44.42"/><rect class="cls-1" x="44.52" y="222.12" width="44.42" height="44.42"/><rect class="cls-1" x="88.95" y="222.12" width="44.42" height="44.42"/><rect class="cls-1" x="133.37" y="222.12" width="44.42" height="44.42"/><rect class="cls-4" x="133.36" y="222.12" width="44.42" height="44.42"/><rect class="cls-1" x="222.22" y="222.12" width="44.42" height="44.42"/><rect class="cls-1" x="266.65" y="222.12" width="44.42" height="44.42"/><rect class="cls-1" x="311.07" y="222.12" width="44.42" height="44.42"/><rect class="cls-1" x="355.5" y="222.12" width="44.42" height="44.42"/><rect class="cls-1" x="0.1" y="266.55" width="44.42" height="44.42"/><rect class="cls-1" x="44.52" y="266.55" width="44.42" height="44.42"/><rect class="cls-1" x="88.95" y="266.55" width="44.42" height="44.42"/><rect class="cls-1" x="133.37" y="266.55" width="44.42" height="44.42"/><rect class="cls-1" x="177.8" y="266.55" width="44.42" height="44.42"/><rect class="cls-1" x="222.22" y="266.55" width="44.42" height="44.42"/><rect class="cls-1" x="266.65" y="266.55" width="44.42" height="44.42"/><rect class="cls-1" x="311.07" y="266.55" width="44.42" height="44.42"/><rect class="cls-1" x="355.5" y="266.55" width="44.42" height="44.42"/><rect class="cls-1" x="0.1" y="310.97" width="44.42" height="44.42"/><rect class="cls-1" x="44.52" y="310.97" width="44.42" height="44.42"/><rect class="cls-1" x="88.95" y="310.97" width="44.42" height="44.42"/><rect class="cls-1" x="133.37" y="310.97" width="44.42" height="44.42"/><rect class="cls-1" x="177.8" y="310.97" width="44.42" height="44.42"/><rect class="cls-1" x="222.22" y="310.97" width="44.42" height="44.42"/><rect class="cls-1" x="266.65" y="310.97" width="44.42" height="44.42"/><rect class="cls-1" x="311.07" y="310.97" width="44.42" height="44.42"/><rect class="cls-1" x="355.5" y="310.97" width="44.42" height="44.42"/><rect class="cls-1" x="0.1" y="355.4" width="44.42" height="44.42"/><rect class="cls-1" x="44.52" y="355.4" width="44.42" height="44.42"/><rect class="cls-1" x="88.95" y="355.4" width="44.42" height="44.42"/><rect class="cls-1" x="133.37" y="355.4" width="44.42" height="44.42"/><rect class="cls-1" x="177.8" y="355.4" width="44.42" height="44.42"/><rect class="cls-1" x="222.22" y="355.4" width="44.42" height="44.42"/><rect class="cls-1" x="266.65" y="355.4" width="44.42" height="44.42"/><rect class="cls-1" x="311.07" y="355.4" width="44.42" height="44.42"/><rect class="cls-1" x="355.5" y="355.4" width="44.42" height="44.42"/><path class="cls-5" d="M68.88,39.41A115.76,115.76,0,0,1,59.15,6.56,107.94,107.94,0,0,1,71.53,19.05a103.35,103.35,0,0,1,3.26-17,105.31,105.31,0,0,1,6.54,16.17A106.74,106.74,0,0,1,91.18,3.71a103,103,0,0,1-.44,17.42,110.76,110.76,0,0,1,15-9.81A104,104,0,0,1,98.4,27.08,114.07,114.07,0,0,1,116,23.53a117.24,117.24,0,0,1-18.3,15.88Z"/><path class="cls-6" d="M81,32.52a33.81,33.81,0,0,1,11,14H27.11a34.06,34.06,0,0,1,4.73-7.91C43.67,23.87,65.68,21.15,81,32.52Z"/><path class="cls-7" d="M90.29,32.32a28.84,28.84,0,0,1,24.57,14.19H65.72A28.83,28.83,0,0,1,90.29,32.32Z"/><path class="cls-8" d="M13.69,222.53a14.28,14.28,0,0,0-8,2.42,14.43,14.43,0,0,0-5.33,6.46H27A14.59,14.59,0,0,0,21.67,225,14.44,14.44,0,0,0,13.69,222.53Z"/><path class="cls-8" d="M168.07,1.09A14.44,14.44,0,0,0,154.73,10h26.65a14.5,14.5,0,0,0-13.31-8.89Z"/><path class="cls-8" d="M353.84,209.6a14.42,14.42,0,0,0-13.33,8.89h26.65a14.53,14.53,0,0,0-13.32-8.89Z"/><path class="cls-8" d="M222.23,324.3a14.39,14.39,0,0,0-8,2.42,14.56,14.56,0,0,0-5.33,6.46h26.66a14.54,14.54,0,0,0-13.32-8.88Z"/><path class="cls-8" d="M266.66,180.52a14.44,14.44,0,0,0-13.34,8.89H280a14.5,14.5,0,0,0-13.31-8.89Z"/><path class="cls-8" d="M291,36.27a14.45,14.45,0,0,0-13.34,8.88h26.66A14.54,14.54,0,0,0,291,36.27Z"/><ellipse class="cls-8" cx="328.67" cy="283.42" rx="42.73" ry="8.9"/><path class="cls-7" d="M348,260.46,353.83,279c0,17-71.29,17-71.29,0l4.76-18.54Z"/><ellipse class="cls-9" cx="317.64" cy="260.46" rx="30.33" ry="12.57"/><ellipse class="cls-7" cx="318.13" cy="259.67" rx="22.73" ry="9.19"/><path class="cls-10" d="M338.65,263.62c-3.66,3.1-11.47,5.24-20.52,5.24s-17-2.19-20.64-5.35C311,258.76,326.62,257.27,338.65,263.62Z"/><polygon class="cls-11" points="266.65 399.82 299.53 370.4 332.83 370.4 362.8 355.4 399.92 384.77 399.92 399.82 266.65 399.82"/><polygon class="cls-12" points="358.41 399.82 328.15 379.95 296.59 399.82 358.41 399.82"/><polygon class="cls-7" points="232.67 399.82 208.6 339.7 179.26 337.74 155.3 322.45 126.47 322.45 110.37 245.07 45.02 245.07 39.24 283.76 17.56 277.25 0.55 322.45 0.55 399.82 232.67 399.82"/><polygon class="cls-13" points="208.6 339.7 169.64 357.24 139.96 333.67 106.56 329.96 92.34 264.41 45.02 245.07 34.21 313.26 7.76 303.28 0.55 322.45 0.55 399.82 232.67 399.82 208.6 339.7"/><polygon class="cls-14" points="202.69 399.82 198.95 371.94 127.58 399.82 202.69 399.82"/><polygon class="cls-14" points="155.3 399.82 127.58 357.24 80.77 340.37 39.24 288.43 34.21 313.26 11.76 331.83 0.55 399.82 155.3 399.82"/><polygon class="cls-7" points="39.24 284 34.21 313.26 47.02 357.88 80.77 340.37 39.24 284"/><path class="cls-8" d="M114.87,189.34a14.28,14.28,0,0,0-8,2.42,14.5,14.5,0,0,0-5.33,6.46h26.66a14.66,14.66,0,0,0-5.33-6.45A14.49,14.49,0,0,0,114.87,189.34Z"/><rect class="cls-1" x="355.51" y="88.85" width="44.42" height="44.42"/><rect class="cls-1" x="355.5" y="133.27" width="44.42" height="44.42"/><rect class="cls-1" x="177.8" y="133.27" width="44.42" height="44.42"/><rect class="cls-1" x="177.8" y="177.7" width="44.42" height="44.42"/><rect class="cls-1" x="177.8" y="222.12" width="44.42" height="44.42"/></g></svg>