<svg xmlns="http://www.w3.org/2000/svg" viewBox="0 0 400 400"><defs><style>.cls-1{fill:#ffd58c;}.cls-2{fill:#67bbef;}.cls-3{fill:#faa264;}.cls-4{fill:#fa935f;}.cls-5{fill:#ffbb80;}.cls-6{fill:#eb7a75;}.cls-7{fill:#ff9d69;}.cls-8{fill:#5d76b0;}.cls-9{fill:#e35f6d;}.cls-10{fill:#cf576e;}.cls-11{fill:#7c87d9;}</style></defs><title>lvl7</title><g id="bg"><rect class="cls-1" x="0.01" y="-0.23" width="44.44" height="44.44"/><rect class="cls-1" x="44.46" y="-0.23" width="44.44" height="44.44"/><rect class="cls-1" x="88.9" y="-0.23" width="44.44" height="44.44"/><rect class="cls-1" x="133.34" y="-0.23" width="44.44" height="44.44"/><rect class="cls-1" x="177.78" y="-0.23" width="44.44" height="44.44"/><rect class="cls-1" x="222.23" y="-0.23" width="44.44" height="44.44"/><rect class="cls-1" x="266.67" y="-0.23" width="44.44" height="44.44"/><rect class="cls-1" x="311.11" y="-0.23" width="44.44" height="44.44"/><rect class="cls-1" x="355.56" y="-0.23" width="44.44" height="44.44"/><rect class="cls-1" x="0.01" y="44.21" width="44.44" height="44.44"/><rect class="cls-1" x="44.46" y="44.21" width="44.44" height="44.44"/><rect class="cls-1" x="88.9" y="44.21" width="44.44" height="44.44"/><rect class="cls-1" x="133.34" y="44.21" width="44.44" height="44.44"/><rect class="cls-1" x="177.78" y="44.21" width="44.44" height="44.44"/><rect class="cls-1" x="222.23" y="44.21" width="44.44" height="44.44"/><rect class="cls-1" x="266.67" y="44.21" width="44.44" height="44.44"/><rect class="cls-2" x="311.11" y="44.21" width="44.44" height="44.44"/><rect class="cls-1" x="355.56" y="44.21" width="44.44" height="44.44"/><rect class="cls-1" x="0.01" y="88.65" width="44.44" height="44.44"/><rect class="cls-1" x="44.46" y="88.65" width="44.44" height="44.44"/><rect class="cls-1" x="88.9" y="88.65" width="44.44" height="44.44"/><rect class="cls-3" x="133.34" y="88.65" width="44.44" height="44.44"/><rect class="cls-4" x="177.78" y="88.65" width="44.44" height="44.44"/><rect class="cls-3" x="222.23" y="88.65" width="44.44" height="44.44"/><rect class="cls-1" x="266.67" y="88.65" width="44.44" height="44.44"/><rect class="cls-3" x="311.11" y="88.65" width="44.44" height="44.44"/><rect class="cls-1" x="355.56" y="88.65" width="44.44" height="44.44"/><rect class="cls-1" x="0.01" y="133.1" width="44.44" height="44.44"/><rect class="cls-1" x="44.46" y="133.1" width="44.44" height="44.44"/><rect class="cls-1" x="88.9" y="133.1" width="44.44" height="44.44"/><rect class="cls-4" x="133.34" y="133.1" width="44.44" height="44.44"/><rect class="cls-1" x="177.78" y="133.1" width="44.44" height="44.44"/><rect class="cls-1" x="222.23" y="133.1" width="44.44" height="44.44"/><rect class="cls-1" x="266.67" y="133.1" width="44.44" height="44.44"/><rect class="cls-4" x="311.11" y="133.1" width="44.44" height="44.44"/><rect class="cls-1" x="355.56" y="133.1" width="44.44" height="44.44"/><rect class="cls-1" x="0.01" y="177.54" width="44.44" height="44.44"/><rect class="cls-1" x="44.46" y="177.54" width="44.44" height="44.44"/><rect class="cls-1" x="88.9" y="177.54" width="44.44" height="44.44"/><rect class="cls-3" x="133.34" y="177.54" width="44.44" height="44.44"/><rect class="cls-1" x="177.78" y="177.54" width="44.44" height="44.44"/><rect class="cls-1" x="222.23" y="177.54" width="44.44" height="44.44"/><rect class="cls-1" x="266.67" y="177.54" width="44.44" height="44.44"/><rect class="cls-3" x="311.11" y="177.54" width="44.44" height="44.44"/><rect class="cls-1" x="355.56" y="177.54" width="44.44" height="44.44"/><rect class="cls-1" x="0.01" y="221.98" width="44.44" height="44.44"/><rect class="cls-1" x="44.46" y="221.98" width="44.44" height="44.44"/><rect class="cls-1" x="88.9" y="221.98" width="44.44" height="44.44"/><rect class="cls-4" x="133.34" y="221.98" width="44.44" height="44.44"/><rect class="cls-3" x="177.78" y="221.98" width="44.44" height="44.44"/><rect class="cls-4" x="222.23" y="221.98" width="44.44" height="44.44"/><rect class="cls-3" x="266.67" y="221.98" width="44.44" height="44.44"/><rect class="cls-4" x="311.11" y="221.98" width="44.44" height="44.44"/><rect class="cls-1" x="355.56" y="221.98" width="44.44" height="44.44"/><rect class="cls-1" x="0.01" y="266.43" width="44.44" height="44.44"/><rect class="cls-1" x="44.46" y="266.43" width="44.44" height="44.44"/><rect class="cls-1" x="88.9" y="266.43" width="44.44" height="44.44"/><rect class="cls-3" x="133.34" y="266.43" width="44.44" height="44.44"/><rect class="cls-1" x="177.78" y="266.43" width="44.44" height="44.44"/><rect class="cls-1" x="222.23" y="266.43" width="44.44" height="44.44"/><rect class="cls-1" x="266.67" y="266.43" width="44.44" height="44.44"/><rect class="cls-1" x="311.11" y="266.43" width="44.44" height="44.44"/><rect class="cls-1" x="355.56" y="266.43" width="44.44" height="44.44"/><rect class="cls-1" x="0.01" y="310.87" width="44.44" height="44.44"/><rect class="cls-1" x="44.46" y="310.87" width="44.44" height="44.44"/><rect class="cls-1" x="88.9" y="310.87" width="44.44" height="44.44"/><rect class="cls-4" x="133.34" y="310.87" width="44.44" height="44.44"/><rect class="cls-1" x="177.78" y="310.87" width="44.44" height="44.44"/><rect class="cls-1" x="222.23" y="310.87" width="44.44" height="44.44"/><rect class="cls-1" x="266.67" y="310.87" width="44.44" height="44.44"/><rect class="cls-1" x="311.11" y="310.87" width="44.44" height="44.44"/><rect class="cls-1" x="355.56" y="310.87" width="44.44" height="44.44"/><rect class="cls-1" x="0.01" y="355.31" width="44.44" height="44.44"/><rect class="cls-1" x="44.46" y="355.31" width="44.44" height="44.44"/><rect class="cls-1" x="177.78" y="355.31" width="44.44" height="44.44"/><rect class="cls-1" x="222.23" y="355.31" width="44.44" height="44.44"/><rect class="cls-1" x="266.67" y="355.31" width="44.44" height="44.44"/><rect class="cls-1" x="311.11" y="355.31" width="44.44" height="44.44"/><rect class="cls-1" x="355.56" y="355.31" width="44.44" height="44.44"/><path class="cls-5" d="M44.47,259.89a14.48,14.48,0,0,0-13.35,8.89H57.79a14.53,14.53,0,0,0-13.32-8.89Z"/><path class="cls-5" d="M15.5,37.46a18.45,18.45,0,0,0-8,1.77A12.17,12.17,0,0,0,2.15,44H28.82a12.27,12.27,0,0,0-5.33-4.72A18.61,18.61,0,0,0,15.5,37.46Z"/><path class="cls-5" d="M349.14,340.46a14.44,14.44,0,0,0-13.34,8.89h26.67a14.55,14.55,0,0,0-13.33-8.89Z"/><path class="cls-5" d="M206.11,319.76a14.44,14.44,0,0,0-13.34,8.89h26.67a14.53,14.53,0,0,0-13.33-8.89Z"/><path class="cls-5" d="M129.55,52.13A14.44,14.44,0,0,0,116.21,61h26.66a14.53,14.53,0,0,0-13.32-8.89Z"/><path class="cls-5" d="M102.69,294.78a14.44,14.44,0,0,0-13.34,8.89H116a14.53,14.53,0,0,0-13.32-8.89Z"/><path class="cls-5" d="M375.81,13a14.28,14.28,0,0,0-8,2.42,14.43,14.43,0,0,0-5.33,6.46h26.66A14.54,14.54,0,0,0,375.81,13Z"/><path class="cls-5" d="M208.9,13a14.31,14.31,0,0,0-8,2.42,14.5,14.5,0,0,0-5.33,6.46h26.67A14.54,14.54,0,0,0,208.9,13Z"/><ellipse class="cls-5" cx="68.38" cy="159.06" rx="42.74" ry="8.9"/><path class="cls-6" d="M87.69,136.09l5.86,18.54c0,17.06-71.32,17.06-71.32,0L27,136.09Z"/><ellipse class="cls-7" cx="57.34" cy="136.09" rx="30.35" ry="12.58"/><ellipse class="cls-6" cx="57.83" cy="135.3" rx="22.74" ry="9.2"/><path class="cls-8" d="M78.36,139.25c-3.65,3.1-11.47,5.24-20.53,5.24s-17-2.19-20.65-5.35C50.67,134.39,66.33,132.9,78.36,139.25Z"/><path class="cls-5" d="M70.39,189.18A14.44,14.44,0,0,0,57,198.07H83.71a14.53,14.53,0,0,0-13.32-8.89Z"/><polygon class="cls-6" points="311.11 221.98 297.29 187.45 280.44 186.33 266.67 177.54 250.11 177.54 240.87 133.1 203.33 133.1 200.01 155.32 187.56 151.58 177.78 177.54 177.78 221.98 311.11 221.98"/><polygon class="cls-9" points="297.29 187.45 274.91 197.53 257.86 183.99 238.68 181.86 230.51 144.21 203.33 133.1 197.12 172.27 181.93 166.53 177.78 177.54 177.78 221.98 311.11 221.98 297.29 187.45"/><polygon class="cls-10" points="293.89 221.98 291.75 205.97 250.75 221.98 293.89 221.98"/><polygon class="cls-10" points="266.67 221.98 250.75 197.53 223.86 187.83 200.01 158 197.12 172.27 184.22 182.93 177.78 221.98 266.67 221.98"/><polygon class="cls-6" points="200.01 155.46 197.12 172.27 204.48 197.89 223.86 187.83 200.01 155.46"/><path class="cls-11" d="M271.22,379.83c-5.36,0-14.26-5.92-15.73-11.08-2.14-7.51.32-15.79,4.81-22.31,10.68-15.54,10.62-31.37,22.86-32.92s33.67,15.21,34.09,54.78c.07,6.44-5.52,11.53-12,11.53Z"/><path class="cls-8" d="M283.16,313.52c-8.71,1.11-11.2,9.45-15.76,19.76,11.19-3.34,23.44-6.45,33.51-12C294.84,315.38,288.22,312.88,283.16,313.52Z"/><path class="cls-8" d="M255.48,357a22.81,22.81,0,0,0,0,11.8c.78,2.74,3.65,5.68,7,7.85,14-2.94,24.1-13.57,35.37-20.62,5-3.33,10.94-5.5,17.2-7.37a66.81,66.81,0,0,0-5-14.48C293.73,344.55,274.36,350.77,255.48,357Z"/><path class="cls-6" d="M276.84,379.83a26.59,26.59,0,0,0-21.35-11.08c-14.52-.25-15.72,11.08-15.72,11.08Z"/><rect class="cls-3" x="88.9" y="310.87" width="44.44" height="44.44"/><rect class="cls-1" x="88.9" y="355.31" width="44.44" height="44.44"/><rect class="cls-1" x="133.34" y="355.31" width="44.44" height="44.44"/></g></svg>