<svg xmlns="http://www.w3.org/2000/svg" viewBox="0 0 400 400"><defs><style>.cls-1{fill:#ffd58c;}.cls-2{fill:#faa264;}.cls-3{fill:#fa935f;}.cls-4{fill:#67bbef;}.cls-5{fill:#ffbb80;}.cls-6{fill:#7493e3;}.cls-7{fill:#4875b5;}.cls-8{fill:#7c87d9;}.cls-9{fill:#5d76b0;}.cls-10{fill:#ba636e;}</style></defs><title>lvl8</title><g id="Слой_1" data-name="Слой 1"><rect class="cls-1" width="44.44" height="44.44"/><rect class="cls-1" x="44.44" width="44.44" height="44.44"/><rect class="cls-1" x="88.89" width="44.44" height="44.44"/><rect class="cls-1" x="133.33" width="44.44" height="44.44"/><rect class="cls-1" x="177.78" width="44.44" height="44.44"/><rect class="cls-1" x="222.22" width="44.44" height="44.44"/><rect class="cls-1" x="266.67" width="44.44" height="44.44"/><rect class="cls-1" x="311.11" width="44.44" height="44.44"/><rect class="cls-1" x="355.56" width="44.44" height="44.44"/><rect class="cls-1" y="44.44" width="44.44" height="44.44"/><rect class="cls-1" x="44.44" y="44.44" width="44.44" height="44.44"/><rect class="cls-1" x="88.89" y="44.44" width="44.44" height="44.44"/><rect class="cls-2" x="89.14" y="44.44" width="44.44" height="44.44"/><rect class="cls-3" x="133.58" y="44.44" width="44.44" height="44.44"/><rect class="cls-2" x="178.03" y="44.44" width="44.44" height="44.44"/><rect class="cls-1" x="222.47" y="44.44" width="44.44" height="44.44"/><rect class="cls-1" x="311.11" y="44.44" width="44.44" height="44.44"/><rect class="cls-1" x="355.56" y="44.44" width="44.44" height="44.44"/><rect class="cls-1" y="88.89" width="44.44" height="44.44"/><rect class="cls-1" x="44.44" y="88.89" width="44.44" height="44.44"/><rect class="cls-1" x="88.89" y="88.89" width="44.44" height="44.44"/><rect class="cls-1" x="133.33" y="88.89" width="44.44" height="44.44"/><rect class="cls-1" x="177.78" y="88.89" width="44.44" height="44.44"/><rect class="cls-3" x="178.03" y="88.89" width="44.44" height="44.44"/><rect class="cls-1" x="266.67" y="88.89" width="44.44" height="44.44"/><rect class="cls-1" x="311.11" y="88.89" width="44.44" height="44.44"/><rect class="cls-1" x="355.56" y="88.89" width="44.44" height="44.44"/><rect class="cls-1" y="133.33" width="44.44" height="44.44"/><rect class="cls-1" x="44.44" y="133.33" width="44.44" height="44.44"/><rect class="cls-4" x="44.69" y="133.33" width="44.44" height="44.44"/><rect class="cls-2" x="89.14" y="133.33" width="44.44" height="44.44"/><rect class="cls-3" x="133.58" y="133.33" width="44.44" height="44.44"/><rect class="cls-2" x="178.03" y="133.33" width="44.44" height="44.44"/><rect class="cls-1" x="266.67" y="133.33" width="44.44" height="44.44"/><rect class="cls-1" x="311.11" y="133.33" width="44.44" height="44.44"/><rect class="cls-1" x="355.56" y="133.33" width="44.44" height="44.44"/><rect class="cls-1" y="177.78" width="44.44" height="44.44"/><rect class="cls-1" x="44.44" y="177.78" width="44.44" height="44.44"/><rect class="cls-1" x="88.89" y="177.78" width="44.44" height="44.44"/><rect class="cls-1" x="133.33" y="177.78" width="44.44" height="44.44"/><rect class="cls-1" x="177.78" y="177.78" width="44.44" height="44.44"/><rect class="cls-3" x="178.03" y="177.78" width="44.44" height="44.44"/><rect class="cls-1" x="266.67" y="177.78" width="44.44" height="44.44"/><rect class="cls-1" x="311.11" y="177.78" width="44.44" height="44.44"/><rect class="cls-1" x="355.56" y="177.78" width="44.44" height="44.44"/><rect class="cls-1" y="222.22" width="44.44" height="44.44"/><rect class="cls-1" x="44.44" y="222.22" width="44.44" height="44.44"/><rect class="cls-1" x="88.89" y="222.22" width="44.44" height="44.44"/><rect class="cls-1" x="133.33" y="222.22" width="44.44" height="44.44"/><rect class="cls-1" x="177.78" y="222.22" width="44.44" height="44.44"/><rect class="cls-2" x="178.03" y="222.22" width="44.44" height="44.44"/><rect class="cls-3" x="222.47" y="222.22" width="44.44" height="44.44"/><rect class="cls-2" x="266.92" y="222.22" width="44.44" height="44.44"/><rect class="cls-3" x="311.36" y="222.22" width="44.44" height="44.44"/><rect class="cls-1" y="266.67" width="44.44" height="44.44"/><rect class="cls-1" x="44.44" y="266.67" width="44.44" height="44.44"/><rect class="cls-1" x="88.89" y="266.67" width="44.44" height="44.44"/><rect class="cls-1" x="133.33" y="266.67" width="44.44" height="44.44"/><rect class="cls-1" x="177.78" y="266.67" width="44.44" height="44.44"/><rect class="cls-1" x="222.22" y="266.67" width="44.44" height="44.44"/><rect class="cls-1" x="266.67" y="266.67" width="44.44" height="44.44"/><rect class="cls-1" x="311.11" y="266.67" width="44.44" height="44.44"/><rect class="cls-1" x="355.56" y="266.67" width="44.44" height="44.44"/><rect class="cls-1" y="311.11" width="44.44" height="44.44"/><rect class="cls-1" x="44.44" y="311.11" width="44.44" height="44.44"/><rect class="cls-1" x="88.89" y="311.11" width="44.44" height="44.44"/><rect class="cls-1" x="133.33" y="311.11" width="44.44" height="44.44"/><rect class="cls-1" x="177.78" y="311.11" width="44.44" height="44.44"/><rect class="cls-1" x="222.22" y="311.11" width="44.44" height="44.44"/><rect class="cls-1" x="266.67" y="311.11" width="44.44" height="44.44"/><rect class="cls-1" x="311.11" y="311.11" width="44.44" height="44.44"/><rect class="cls-1" x="355.56" y="311.11" width="44.44" height="44.44"/><rect class="cls-1" y="355.56" width="44.44" height="44.44"/><rect class="cls-1" x="44.44" y="355.56" width="44.44" height="44.44"/><rect class="cls-1" x="88.89" y="355.56" width="44.44" height="44.44"/><rect class="cls-1" x="133.33" y="355.56" width="44.44" height="44.44"/><rect class="cls-1" x="177.78" y="355.56" width="44.44" height="44.44"/><rect class="cls-1" x="222.22" y="355.56" width="44.44" height="44.44"/><rect class="cls-1" x="266.67" y="355.56" width="44.44" height="44.44"/><rect class="cls-1" x="311.11" y="355.56" width="44.44" height="44.44"/><rect class="cls-1" x="355.56" y="355.56" width="44.44" height="44.44"/><path class="cls-5" d="M88.9,260.13A14.44,14.44,0,0,0,75.56,269h26.66a14.53,14.53,0,0,0-13.32-8.89Z"/><path class="cls-5" d="M56.26,35.3a14.44,14.44,0,0,0-13.34,8.89H69.59A14.55,14.55,0,0,0,56.26,35.3Z"/><path class="cls-5" d="M237.22,336.26a14.44,14.44,0,0,0-13.34,8.89h26.66a14.53,14.53,0,0,0-13.32-8.89Z"/><path class="cls-5" d="M138.12,1.09A14.44,14.44,0,0,0,124.78,10h26.67a14.53,14.53,0,0,0-13.33-8.89Z"/><path class="cls-5" d="M35.56,284.44a14.44,14.44,0,0,0-13.34,8.89H48.89a14.53,14.53,0,0,0-13.33-8.89Z"/><path class="cls-5" d="M114.82,189.42a14.44,14.44,0,0,0-13.34,8.89h26.66a14.53,14.53,0,0,0-13.32-8.89Z"/><path class="cls-5" d="M324.56,55.19a14.44,14.44,0,0,0-13.34,8.89h26.66a14.53,14.53,0,0,0-13.32-8.89Z"/><polygon class="cls-6" points="318.29 362.51 318.29 362.53 318.06 364.36 272.85 357.8 272.96 356.93 272.96 356.91 273.07 356.03 318.52 360.67 318.29 362.51"/><polygon class="cls-6" points="328.36 344.2 328.38 344.19 329.81 343.01 300.06 308.34 299.38 308.9 299.37 308.92 298.68 309.48 326.93 345.38 328.36 344.2"/><circle class="cls-4" cx="348.33" cy="367.11" r="2.88"/><ellipse class="cls-6" cx="333.56" cy="358.96" rx="16.64" ry="16.86" transform="translate(-141.73 478.2) rotate(-61.18)"/><ellipse class="cls-4" cx="339.57" cy="366.49" rx="2.97" ry="3.58" transform="translate(-38.02 693.69) rotate(-88.09)"/><path class="cls-7" d="M341.48,342.29a2.11,2.11,0,0,0-1.7,1l-16.73,28.76a2.09,2.09,0,1,0,3.61,2.1l16.73-28.76a2.08,2.08,0,0,0-.75-2.85A2,2,0,0,0,341.48,342.29Z"/><circle class="cls-7" cx="273.7" cy="356.95" r="3.46"/><circle class="cls-7" cx="299.36" cy="309.18" r="3.46"/><path class="cls-5" d="M352.89,364.72A18.33,18.33,0,0,1,369.78,376H336a18.4,18.4,0,0,1,16.89-11.24Z"/><ellipse class="cls-5" cx="353.52" cy="168.21" rx="43.11" ry="4.3"/><path class="cls-8" d="M363.21,171.82H317.13c-7.12.55-10.85-8-10.78-14.82s4-12.92,8-18.57c4.34-6.19,8.9-12.39,15-17s14.06-7.62,21.79-6.38c7.51,1.2,13.86,6.23,18.06,12.26s6.53,13,8.65,20c1.8,5.88,3.48,12.25,1.26,18S371.4,172.36,363.21,171.82Z"/><path class="cls-9" d="M316,136.18l-1.6,2.25a63,63,0,0,0-5.76,9.51c5.4,6.72,14.11,8.22,22,7.24,19.05-4.31,34.91-1.24,49.56,5.19.26-4.35-1-8.86-2.28-13.12-.52-1.72-1.07-3.46-1.65-5.18C355.34,142.36,334.34,144.94,316,136.18Z"/><path class="cls-9" d="M351.16,115c-7.73-1.24-15.68,1.73-21.79,6.38-.19.14-.36.29-.54.44a82.08,82.08,0,0,0,38.77,3.31C363.47,120.08,357.76,116.07,351.16,115Z"/><path class="cls-10" d="M297.83,177.8a14.5,14.5,0,0,1,14-13.7c7.22,0,13.83,6.46,14,13.68Z"/><rect class="cls-1" x="266.67" y="44.44" width="44.44" height="44.44"/><rect class="cls-1" x="222.35" y="88.89" width="44.44" height="44.44"/><rect class="cls-1" x="222.35" y="133.33" width="44.44" height="44.44"/><rect class="cls-1" x="222.35" y="177.78" width="44.44" height="44.44"/><rect class="cls-1" x="355.56" y="222.22" width="44.44" height="44.44"/></g></svg>