<svg xmlns="http://www.w3.org/2000/svg" viewBox="0 0 400 400"><defs><style>.cls-1{fill:#ffd58c;}.cls-2{fill:#faa264;}.cls-3{fill:#fa935f;}.cls-4{fill:#67bbef;}.cls-5{fill:#ffbb80;}.cls-6{fill:#eb7a75;}.cls-7{fill:#ff9d69;}.cls-8{fill:#5d76b0;}.cls-9{fill:#e35f6d;}.cls-10{fill:#cf576e;}.cls-11{fill:#d8566f;}.cls-12{fill:#ed7d7a;}</style></defs><title>lvl9</title><g id="bg"><rect class="cls-1" width="44.44" height="44.44"/><rect class="cls-1" x="44.44" width="44.44" height="44.44"/><rect class="cls-1" x="88.89" width="44.44" height="44.44"/><rect class="cls-1" x="133.33" width="44.44" height="44.44"/><rect class="cls-1" x="177.78" width="44.44" height="44.44"/><rect class="cls-1" x="222.22" width="44.44" height="44.44"/><rect class="cls-1" x="266.67" width="44.44" height="44.44"/><rect class="cls-1" x="355.56" width="44.44" height="44.44"/><rect class="cls-1" y="44.44" width="44.44" height="44.44"/><rect class="cls-1" x="44.44" y="44.44" width="44.44" height="44.44"/><rect class="cls-1" x="88.89" y="44.44" width="44.44" height="44.44"/><rect class="cls-1" x="133.33" y="44.44" width="44.44" height="44.44"/><rect class="cls-1" x="177.78" y="44.44" width="44.44" height="44.44"/><rect class="cls-1" x="222.22" y="44.44" width="44.44" height="44.44"/><rect class="cls-1" x="266.67" y="44.44" width="44.44" height="44.44"/><rect class="cls-2" x="311.11" y="44.44" width="44.44" height="44.44"/><rect class="cls-1" x="355.56" y="44.44" width="44.44" height="44.44"/><rect class="cls-1" y="88.89" width="44.44" height="44.44"/><rect class="cls-1" x="44.44" y="88.89" width="44.44" height="44.44"/><rect class="cls-1" x="88.89" y="88.89" width="44.44" height="44.44"/><rect class="cls-1" x="133.33" y="88.89" width="44.44" height="44.44"/><rect class="cls-1" x="177.78" y="88.89" width="44.44" height="44.44"/><rect class="cls-1" x="222.22" y="88.89" width="44.44" height="44.44"/><rect class="cls-1" x="266.67" y="88.89" width="44.44" height="44.44"/><rect class="cls-3" x="311.11" y="88.89" width="44.44" height="44.44"/><rect class="cls-1" x="355.56" y="88.89" width="44.44" height="44.44"/><rect class="cls-1" y="133.33" width="44.44" height="44.44"/><rect class="cls-1" x="44.44" y="133.33" width="44.44" height="44.44"/><rect class="cls-1" x="88.89" y="133.33" width="44.44" height="44.44"/><rect class="cls-1" x="133.33" y="133.33" width="44.44" height="44.44"/><rect class="cls-1" x="177.78" y="133.33" width="44.44" height="44.44"/><rect class="cls-1" x="222.22" y="133.33" width="44.44" height="44.44"/><rect class="cls-1" x="266.67" y="133.33" width="44.44" height="44.44"/><rect class="cls-2" x="311.11" y="133.33" width="44.44" height="44.44"/><rect class="cls-1" x="355.56" y="133.33" width="44.44" height="44.44"/><rect class="cls-1" y="177.78" width="44.44" height="44.44"/><rect class="cls-1" x="44.44" y="177.78" width="44.44" height="44.44"/><rect class="cls-1" x="88.89" y="177.78" width="44.44" height="44.44"/><rect class="cls-1" x="133.33" y="177.78" width="44.44" height="44.44"/><rect class="cls-1" x="177.78" y="177.78" width="44.44" height="44.44"/><rect class="cls-1" x="222.22" y="177.78" width="44.44" height="44.44"/><rect class="cls-1" x="266.67" y="177.78" width="44.44" height="44.44"/><rect class="cls-3" x="311.11" y="177.78" width="44.44" height="44.44"/><rect class="cls-1" x="355.56" y="177.78" width="44.44" height="44.44"/><rect class="cls-1" y="222.22" width="44.44" height="44.44"/><rect class="cls-4" x="44.44" y="222.22" width="44.44" height="44.44"/><rect class="cls-3" x="88.89" y="222.22" width="44.44" height="44.44"/><rect class="cls-2" x="133.33" y="222.22" width="44.44" height="44.44"/><rect class="cls-3" x="177.78" y="222.22" width="44.44" height="44.44"/><rect class="cls-2" x="222.22" y="222.22" width="44.44" height="44.44"/><rect class="cls-3" x="266.67" y="222.22" width="44.44" height="44.44"/><rect class="cls-2" x="311.11" y="222.22" width="44.44" height="44.44"/><rect class="cls-1" x="355.56" y="222.22" width="44.44" height="44.44"/><rect class="cls-1" y="266.67" width="44.44" height="44.44"/><rect class="cls-1" x="44.44" y="266.67" width="44.44" height="44.44"/><rect class="cls-1" x="88.89" y="266.67" width="44.44" height="44.44"/><rect class="cls-1" x="133.33" y="266.67" width="44.44" height="44.44"/><rect class="cls-1" x="177.78" y="266.67" width="44.44" height="44.44"/><rect class="cls-1" x="222.22" y="266.67" width="44.44" height="44.44"/><rect class="cls-1" x="266.67" y="266.67" width="44.44" height="44.44"/><rect class="cls-3" x="311.11" y="266.67" width="44.44" height="44.44"/><rect class="cls-1" x="355.56" y="266.67" width="44.44" height="44.44"/><rect class="cls-1" y="311.11" width="44.44" height="44.44"/><rect class="cls-1" x="44.44" y="311.11" width="44.44" height="44.44"/><rect class="cls-1" x="88.89" y="311.11" width="44.44" height="44.44"/><rect class="cls-1" x="133.33" y="311.11" width="44.44" height="44.44"/><rect class="cls-1" x="177.78" y="311.11" width="44.44" height="44.44"/><rect class="cls-2" x="222.22" y="311.11" width="44.44" height="44.44"/><rect class="cls-3" x="266.67" y="311.11" width="44.44" height="44.44"/><rect class="cls-2" x="311.11" y="311.11" width="44.44" height="44.44"/><rect class="cls-1" x="355.56" y="311.11" width="44.44" height="44.44"/><rect class="cls-1" y="355.56" width="44.44" height="44.44"/><rect class="cls-1" x="44.44" y="355.56" width="44.44" height="44.44"/><rect class="cls-1" x="88.89" y="355.56" width="44.44" height="44.44"/><rect class="cls-1" x="133.33" y="355.56" width="44.44" height="44.44"/><rect class="cls-1" x="177.78" y="355.56" width="44.44" height="44.44"/><rect class="cls-1" x="222.22" y="355.56" width="44.44" height="44.44"/><rect class="cls-1" x="266.67" y="355.56" width="44.44" height="44.44"/><rect class="cls-1" x="311.11" y="355.56" width="44.44" height="44.44"/><rect class="cls-1" x="355.56" y="355.56" width="44.44" height="44.44"/><path class="cls-5" d="M244.44,377.78a14.44,14.44,0,0,0-13.34,8.89h26.67a14.53,14.53,0,0,0-13.33-8.89Z"/><path class="cls-5" d="M323.17,364.79a14.44,14.44,0,0,0-13.34,8.89h26.66a14.53,14.53,0,0,0-13.32-8.89Z"/><path class="cls-5" d="M62.75,309.87a14.44,14.44,0,0,0-13.34,8.89H76.08a14.53,14.53,0,0,0-13.33-8.89Z"/><path class="cls-5" d="M192.77,291.82a14.31,14.31,0,0,0-8,2.42,14.5,14.5,0,0,0-5.33,6.46H206.1a14.5,14.5,0,0,0-13.33-8.88Z"/><ellipse class="cls-5" cx="85.68" cy="82.42" rx="42.74" ry="8.9"/><path class="cls-6" d="M105,59.45,110.86,78c0,17-71.33,17-71.33,0l4.76-18.55Z"/><ellipse class="cls-7" cx="74.64" cy="59.45" rx="30.35" ry="12.58"/><ellipse class="cls-6" cx="75.13" cy="58.66" rx="22.74" ry="9.2"/><path class="cls-8" d="M95.66,62.62C92,65.71,84.19,67.86,75.13,67.86s-17-2.2-20.65-5.35C68,57.75,83.63,56.26,95.66,62.62Z"/><polygon class="cls-6" points="44.44 222.22 72.1 153.15 105.8 150.91 133.33 133.33 166.45 133.33 184.94 44.44 260.02 44.44 266.67 88.89 291.57 81.41 311.11 133.33 311.11 222.22 44.44 222.22"/><polygon class="cls-9" points="72.1 153.15 116.86 173.31 150.96 146.23 189.32 141.97 205.66 66.66 260.02 44.44 272.44 122.78 302.82 111.31 311.11 133.33 311.11 222.22 44.44 222.22 72.1 153.15"/><polygon class="cls-10" points="78.89 222.22 83.18 190.19 165.18 222.22 78.89 222.22"/><polygon class="cls-10" points="133.33 222.22 165.18 173.31 218.95 153.92 266.67 94.26 272.44 122.78 298.23 144.11 311.11 222.22 133.33 222.22"/><polygon class="cls-6" points="266.67 89.16 272.44 122.78 257.72 174.04 218.95 153.92 266.67 89.16"/><path class="cls-5" d="M16.59,165.25a14.44,14.44,0,0,0-13.35,8.89H29.91a14.53,14.53,0,0,0-13.32-8.89Z"/><path class="cls-5" d="M280.11,10.74a14.44,14.44,0,0,0-13.34,8.89h26.67a14.53,14.53,0,0,0-13.33-8.89Z"/><path class="cls-11" d="M198,399.52h-81.6l14.79-35.77C172.81,368.36,198,399.52,198,399.52Z"/><path class="cls-12" d="M169.23,399.52H19.91L47,334.06C123.15,342.5,169.23,399.52,169.23,399.52Z"/><path class="cls-12" d="M59.27,399.52h110l-19.93-48.2C93.21,357.53,59.27,399.52,59.27,399.52Z"/><path class="cls-11" d="M1.62,399.52H83.23L68.44,363.75C26.81,368.36,1.62,399.52,1.62,399.52Z"/><ellipse class="cls-5" cx="122.88" cy="31.84" rx="21.37" ry="4.45"/><path class="cls-6" d="M132.54,20.36l2.93,9.27c0,8.53-35.66,8.53-35.66,0l2.38-9.27Z"/><ellipse class="cls-7" cx="117.36" cy="20.36" rx="15.17" ry="6.29"/><ellipse class="cls-6" cx="117.61" cy="19.96" rx="11.37" ry="4.6"/><path class="cls-8" d="M127.87,21.94c-1.82,1.55-5.73,2.62-10.26,2.62s-8.53-1.1-10.33-2.67C114,19.51,121.86,18.76,127.87,21.94Z"/><rect class="cls-1" x="311.11" width="44.44" height="44.44"/></g></svg>