<svg width="113" height="66" viewBox="0 0 113 66" fill="none" xmlns="http://www.w3.org/2000/svg">
<path d="M9.92778 7.47976C6.00724 19.4841 10.7773 27.4915 15.3865 32.0809C18.4794 35.0685 22.1427 37.4022 26.1577 38.9424L28.6333 31.7895C25.6259 30.5814 22.8864 28.7919 20.5716 26.5235C16.0898 21.9994 14.9639 16.542 17.1575 9.86214L9.92778 7.47976Z" fill="#3F5BC6"/>
<path d="M9.93821 0.370212C9.75682 0.321608 9.56763 0.309213 9.38145 0.333725C9.19527 0.358236 9.01573 0.419176 8.8531 0.513071C8.69047 0.606966 8.54793 0.731978 8.43361 0.880962C8.31929 1.02995 8.23544 1.19999 8.18683 1.38138C7.72563 3.03343 7.85756 4.79483 8.55971 6.35975C9.26186 7.92467 10.4899 9.19427 12.0306 9.94811C13.6232 10.7854 15.4586 11.0393 17.2187 10.6657C18.9789 10.2922 20.553 9.31482 21.6683 7.90286C21.8739 7.60872 21.9614 7.24801 21.9135 6.89235C21.8655 6.53668 21.6855 6.21206 21.4093 5.98293C21.1331 5.75379 20.7808 5.6369 20.4224 5.65545C20.064 5.674 19.7256 5.82664 19.4746 6.08306C18.7754 6.99568 17.7753 7.63088 16.652 7.87578C15.5287 8.12069 14.3549 7.95945 13.3393 7.42072C12.3803 6.95956 11.6143 6.17555 11.1756 5.20615C10.7368 4.23674 10.6533 3.14382 10.9397 2.11901C10.9895 1.93842 11.003 1.74977 10.9795 1.56392C10.9561 1.37808 10.8961 1.19871 10.803 1.03616C10.7099 0.873606 10.5855 0.731074 10.4371 0.616782C10.2887 0.502489 10.1192 0.41869 9.93821 0.370212Z" fill="#3F5BC6"/>
<path d="M20.367 26.2823C20.1406 26.0456 19.9167 25.7993 19.7121 25.5582C18.3233 27.7232 16.5655 29.6279 14.5187 31.1857L15.1935 31.8739C17.2254 30.3199 18.9754 28.4286 20.367 26.2823Z" fill="#2A49C0"/>
<path d="M17.504 22.2851C17.3447 21.9525 17.195 21.6226 17.0672 21.2881C16.0316 22.6102 14.6468 23.6162 13.0693 24.1923C12.1924 24.5406 11.2665 24.7501 10.3251 24.8132C10.454 25.1307 10.5992 25.4388 10.7607 25.7375C13.3476 25.398 15.7351 24.1669 17.5118 22.2561L17.504 22.2851Z" fill="#2A49C0"/>
<path d="M16.0901 16.3572C16.0719 16.0003 16.0852 15.6415 16.0881 15.3214C13.7756 16.64 11.0888 17.1481 8.45444 16.7648C8.45855 17.0972 8.4775 17.4129 8.49644 17.7285C11.1079 18.0429 13.7536 17.5652 16.0901 16.3572Z" fill="#2A49C0"/>
<path d="M9.66554 8.07207C9.68516 8.08606 9.70917 8.09249 9.73316 8.09019L9.66554 8.07207Z" fill="white"/>
<path d="M16.6257 11.7695C16.7086 11.4604 16.7888 11.1609 16.8846 10.8036C16.687 10.803 16.4896 10.7915 16.2933 10.7694C13.8807 10.6302 11.5826 9.69399 9.75955 8.10761C9.66896 8.44568 9.57579 8.79341 9.4852 9.13149C11.5279 10.7413 14.027 11.6646 16.6257 11.7695Z" fill="#2A49C0"/>
<path d="M102.308 7.47976C106.229 19.4841 101.459 27.4915 96.8493 32.0809C93.7564 35.0685 90.0931 37.4022 86.0781 38.9424L83.6025 31.7895C86.6099 30.5814 89.3495 28.7919 91.6642 26.5235C96.146 21.9994 97.2719 16.542 95.0783 9.86214L102.308 7.47976Z" fill="#3F5BC6"/>
<path d="M102.298 0.370212C102.479 0.321608 102.668 0.309213 102.854 0.333725C103.041 0.358236 103.22 0.419176 103.383 0.513071C103.545 0.606966 103.688 0.731978 103.802 0.880962C103.917 1.02995 104 1.19999 104.049 1.38138C104.51 3.03343 104.378 4.79483 103.676 6.35975C102.974 7.92467 101.746 9.19427 100.205 9.94811C98.6126 10.7854 96.7772 11.0393 95.0171 10.6657C93.2569 10.2922 91.6828 9.31482 90.5675 7.90286C90.3619 7.60872 90.2744 7.24801 90.3223 6.89235C90.3703 6.53668 90.5503 6.21206 90.8265 5.98293C91.1027 5.75379 91.455 5.6369 91.8134 5.65545C92.1718 5.674 92.5101 5.82664 92.7612 6.08306C93.4604 6.99568 94.4605 7.63088 95.5838 7.87578C96.7071 8.12069 97.8809 7.95945 98.8965 7.42072C99.8554 6.95956 100.621 6.17555 101.06 5.20615C101.499 4.23674 101.582 3.14382 101.296 2.11901C101.246 1.93842 101.233 1.74977 101.256 1.56392C101.28 1.37808 101.34 1.19871 101.433 1.03616C101.526 0.873606 101.65 0.731074 101.799 0.616782C101.947 0.502489 102.117 0.41869 102.298 0.370212Z" fill="#3F5BC6"/>
<path d="M91.8688 26.2823C92.0952 26.0456 92.3191 25.7993 92.5237 25.5582C93.9125 27.7232 95.6703 29.6279 97.7172 31.1857L97.0423 31.8739C95.0104 30.3199 93.2604 28.4286 91.8688 26.2823Z" fill="#2A49C0"/>
<path d="M94.7318 22.2851C94.8911 21.9525 95.0408 21.6226 95.1686 21.2881C96.2042 22.6102 97.589 23.6162 99.1665 24.1923C100.043 24.5406 100.969 24.7501 101.911 24.8132C101.782 25.1307 101.637 25.4388 101.475 25.7375C98.8882 25.398 96.5007 24.1669 94.724 22.2561L94.7318 22.2851Z" fill="#2A49C0"/>
<path d="M96.1457 16.3572C96.164 16.0003 96.1506 15.6415 96.1477 15.3214C98.4602 16.64 101.147 17.1481 103.781 16.7648C103.777 17.0972 103.758 17.4129 103.739 17.7285C101.128 18.0429 98.4822 17.5652 96.1457 16.3572Z" fill="#2A49C0"/>
<path d="M102.57 8.07207C102.551 8.08606 102.527 8.09249 102.503 8.09019L102.57 8.07207Z" fill="white"/>
<path d="M95.6101 11.7695C95.5273 11.4604 95.447 11.1609 95.3513 10.8036C95.5488 10.803 95.7462 10.7915 95.9426 10.7694C98.3551 10.6302 100.653 9.69399 102.476 8.10761C102.567 8.44568 102.66 8.79341 102.751 9.13149C100.708 10.7413 98.2088 11.6646 95.6101 11.7695Z" fill="#2A49C0"/>
<ellipse cx="56" cy="37.5" rx="36" ry="28.5" fill="#CFFDFF"/>
<circle cx="56" cy="46" r="6" fill="#3F5BC6"/>
<rect x="54.2" y="35" width="3.6" height="10" fill="#3F5BC6"/>
<path d="M55.8867 9C57.1215 9.01178 58.3363 9.0424 59.5264 9.09082C68.5623 9.67885 76.6527 12.9078 82.5625 17.8018C79.2795 20.7901 68.0669 22.9931 54.7373 22.9932C43.4842 22.9932 33.7386 21.4235 29 19.1367C35.4739 13.0565 45.1012 9.15126 55.8867 9Z" fill="#3F0082"/>
<path d="M71.0142 16.1063C71.3685 15.9359 71.5341 15.5097 71.3841 15.1545C71.2341 14.7993 70.8254 14.6496 70.4711 14.82L70.7427 15.4632L71.0142 16.1063ZM62.5602 13.6952C62.3315 13.3897 61.8954 13.3438 61.586 13.5925C61.2767 13.8413 61.2112 14.2907 61.4398 14.5962L62 14.1457L62.5602 13.6952ZM70.7427 15.4632L70.4711 14.82C69.0952 15.4822 67.4537 15.6774 65.9657 15.4506C64.467 15.2222 63.2248 14.5833 62.5602 13.6952L62 14.1457L61.4398 14.5962C62.3778 15.8495 63.9862 16.6012 65.6978 16.8621C67.4202 17.1246 69.3488 16.9078 71.0142 16.1063L70.7427 15.4632Z" fill="#00D9E8"/>
<path d="M50.3252 14.8762C50.6261 14.6179 50.6917 14.1553 50.4718 13.843C50.2518 13.5307 49.8295 13.4869 49.5286 13.7452L49.9269 14.3107L50.3252 14.8762ZM41.4336 14.7347C41.1479 14.4934 40.7222 14.5617 40.4828 14.8873C40.2433 15.213 40.2808 15.6726 40.5665 15.9139L41 15.3243L41.4336 14.7347ZM49.9269 14.3107L49.5286 13.7452C48.311 14.7906 46.7267 15.4314 45.2018 15.6019C43.6657 15.7736 42.2911 15.4591 41.4336 14.7347L41 15.3243L40.5665 15.9139C41.7672 16.9282 43.5168 17.2567 45.2599 17.0618C47.0142 16.8657 48.8643 16.1303 50.3252 14.8762L49.9269 14.3107Z" fill="#00D9E8"/>
<path d="M24 47L17 47C15.8954 47 15 46.1046 15 45L15 32C15 30.8954 15.8954 30 17 30L24 30L24 47Z" fill="#00BDD1"/>
<path d="M91 47L98 47C99.1046 47 100 46.1046 100 45L100 32C100 30.8954 99.1046 30 98 30L91 30L91 47Z" fill="#00BDD1"/>
<path d="M51 11.1228C51 10.5598 51.5268 10.0198 52.4645 9.62175C53.4021 9.22365 54.6739 9 56 9C57.3261 9 58.5979 9.22365 59.5355 9.62175C60.4732 10.0199 61 10.5598 61 11.1228C61 12.2924 51 12.2924 51 11.1228Z" fill="#00D9E8"/>
</svg>
