<svg width="113" height="91" viewBox="0 0 113 91" fill="none" xmlns="http://www.w3.org/2000/svg">
<path d="M9.92778 32.4798C6.00724 44.4841 10.7773 52.4915 15.3865 57.0809C18.4794 60.0685 22.1427 62.4022 26.1577 63.9424L28.6333 56.7895C25.6259 55.5814 22.8864 53.7919 20.5716 51.5235C16.0898 46.9994 14.9639 41.542 17.1575 34.8621L9.92778 32.4798Z" fill="#3F5BC6"/>
<path d="M9.93821 25.3702C9.75682 25.3216 9.56763 25.3092 9.38145 25.3337C9.19527 25.3582 9.01573 25.4192 8.8531 25.5131C8.69047 25.607 8.54793 25.732 8.43361 25.881C8.31929 26.0299 8.23544 26.2 8.18683 26.3814C7.72563 28.0334 7.85756 29.7948 8.55971 31.3598C9.26186 32.9247 10.4899 34.1943 12.0306 34.9481C13.6232 35.7854 15.4586 36.0393 17.2187 35.6657C18.9789 35.2922 20.553 34.3148 21.6683 32.9029C21.8739 32.6087 21.9614 32.248 21.9135 31.8923C21.8655 31.5367 21.6855 31.2121 21.4093 30.9829C21.1331 30.7538 20.7808 30.6369 20.4224 30.6554C20.064 30.674 19.7256 30.8266 19.4746 31.0831C18.7754 31.9957 17.7753 32.6309 16.652 32.8758C15.5287 33.1207 14.3549 32.9595 13.3393 32.4207C12.3803 31.9596 11.6143 31.1756 11.1756 30.2061C10.7368 29.2367 10.6533 28.1438 10.9397 27.119C10.9895 26.9384 11.003 26.7498 10.9795 26.5639C10.9561 26.3781 10.8961 26.1987 10.803 26.0362C10.7099 25.8736 10.5855 25.7311 10.4371 25.6168C10.2887 25.5025 10.1192 25.4187 9.93821 25.3702Z" fill="#3F5BC6"/>
<path d="M20.367 51.2823C20.1406 51.0456 19.9167 50.7993 19.7121 50.5582C18.3233 52.7232 16.5655 54.6279 14.5187 56.1857L15.1935 56.8739C17.2254 55.3199 18.9754 53.4286 20.367 51.2823Z" fill="#2A49C0"/>
<path d="M17.504 47.2851C17.3447 46.9526 17.195 46.6226 17.0672 46.2881C16.0316 47.6102 14.6468 48.6162 13.0693 49.1923C12.1924 49.5406 11.2665 49.7501 10.3251 49.8132C10.454 50.1307 10.5992 50.4388 10.7607 50.7375C13.3476 50.398 15.7351 49.1669 17.5118 47.2562L17.504 47.2851Z" fill="#2A49C0"/>
<path d="M16.0901 41.3572C16.0719 41.0003 16.0852 40.6415 16.0881 40.3214C13.7756 41.64 11.0888 42.1481 8.45444 41.7648C8.45855 42.0972 8.4775 42.4129 8.49644 42.7285C11.1079 43.0429 13.7536 42.5652 16.0901 41.3572Z" fill="#2A49C0"/>
<path d="M9.66554 33.0721C9.68516 33.0861 9.70917 33.0925 9.73316 33.0902L9.66554 33.0721Z" fill="white"/>
<path d="M16.6257 36.7695C16.7086 36.4604 16.7888 36.161 16.8846 35.8036C16.687 35.803 16.4896 35.7916 16.2933 35.7694C13.8807 35.6302 11.5826 34.694 9.75955 33.1076C9.66896 33.4457 9.57579 33.7934 9.4852 34.1315C11.5279 35.7413 14.027 36.6646 16.6257 36.7695Z" fill="#2A49C0"/>
<path d="M102.308 32.4798C106.229 44.4841 101.459 52.4915 96.8493 57.0809C93.7564 60.0685 90.0931 62.4022 86.0781 63.9424L83.6025 56.7895C86.6099 55.5814 89.3495 53.7919 91.6642 51.5235C96.146 46.9994 97.2719 41.542 95.0783 34.8621L102.308 32.4798Z" fill="#3F5BC6"/>
<path d="M102.298 25.3702C102.479 25.3216 102.668 25.3092 102.854 25.3337C103.041 25.3582 103.22 25.4192 103.383 25.5131C103.545 25.607 103.688 25.732 103.802 25.881C103.917 26.0299 104 26.2 104.049 26.3814C104.51 28.0334 104.378 29.7948 103.676 31.3598C102.974 32.9247 101.746 34.1943 100.205 34.9481C98.6126 35.7854 96.7772 36.0393 95.0171 35.6657C93.2569 35.2922 91.6828 34.3148 90.5675 32.9029C90.3619 32.6087 90.2744 32.248 90.3223 31.8923C90.3703 31.5367 90.5503 31.2121 90.8265 30.9829C91.1027 30.7538 91.455 30.6369 91.8134 30.6554C92.1718 30.674 92.5101 30.8266 92.7612 31.0831C93.4604 31.9957 94.4605 32.6309 95.5838 32.8758C96.7071 33.1207 97.8809 32.9595 98.8965 32.4207C99.8554 31.9596 100.621 31.1756 101.06 30.2061C101.499 29.2367 101.582 28.1438 101.296 27.119C101.246 26.9384 101.233 26.7498 101.256 26.5639C101.28 26.3781 101.34 26.1987 101.433 26.0362C101.526 25.8736 101.65 25.7311 101.799 25.6168C101.947 25.5025 102.117 25.4187 102.298 25.3702Z" fill="#3F5BC6"/>
<path d="M91.8688 51.2823C92.0952 51.0456 92.3191 50.7993 92.5237 50.5582C93.9125 52.7232 95.6703 54.6279 97.7172 56.1857L97.0423 56.8739C95.0104 55.3199 93.2604 53.4286 91.8688 51.2823Z" fill="#2A49C0"/>
<path d="M94.7318 47.2851C94.8911 46.9526 95.0408 46.6226 95.1686 46.2881C96.2042 47.6102 97.589 48.6162 99.1665 49.1923C100.043 49.5406 100.969 49.7501 101.911 49.8132C101.782 50.1307 101.637 50.4388 101.475 50.7375C98.8882 50.398 96.5007 49.1669 94.724 47.2562L94.7318 47.2851Z" fill="#2A49C0"/>
<path d="M96.1457 41.3572C96.164 41.0003 96.1506 40.6415 96.1477 40.3214C98.4602 41.64 101.147 42.1481 103.781 41.7648C103.777 42.0972 103.758 42.4129 103.739 42.7285C101.128 43.0429 98.4822 42.5652 96.1457 41.3572Z" fill="#2A49C0"/>
<path d="M102.57 33.0721C102.551 33.0861 102.527 33.0925 102.503 33.0902L102.57 33.0721Z" fill="white"/>
<path d="M95.6101 36.7695C95.5273 36.4604 95.447 36.161 95.3513 35.8036C95.5488 35.803 95.7462 35.7916 95.9426 35.7694C98.3551 35.6302 100.653 34.694 102.476 33.1076C102.567 33.4457 102.66 33.7934 102.751 34.1315C100.708 35.7413 98.2088 36.6646 95.6101 36.7695Z" fill="#2A49C0"/>
<ellipse cx="56" cy="62.5" rx="36" ry="28.5" fill="#CFFDFF"/>
<circle cx="56" cy="71" r="6" fill="#3F5BC6"/>
<rect x="54.2" y="60" width="3.6" height="10" fill="#3F5BC6"/>
<path d="M55.8867 34C57.1215 34.0118 58.3363 34.0424 59.5264 34.0908C68.5623 34.6789 76.6527 37.9078 82.5625 42.8018C79.2795 45.7901 68.0669 47.9931 54.7373 47.9932C43.4842 47.9932 33.7386 46.4235 29 44.1367C35.4739 38.0565 45.1012 34.1513 55.8867 34Z" fill="#3F0082"/>
<path d="M71.0142 41.1063C71.3685 40.9359 71.5341 40.5097 71.3841 40.1545C71.2341 39.7993 70.8254 39.6496 70.4711 39.8201L70.7427 40.4632L71.0142 41.1063ZM62.5602 38.6953C62.3315 38.3897 61.8954 38.3438 61.586 38.5925C61.2767 38.8413 61.2112 39.2907 61.4398 39.5962L62 39.1457L62.5602 38.6953ZM70.7427 40.4632L70.4711 39.8201C69.0952 40.4822 67.4537 40.6774 65.9657 40.4506C64.467 40.2222 63.2248 39.5833 62.5602 38.6953L62 39.1457L61.4398 39.5962C62.3778 40.8495 63.9862 41.6012 65.6978 41.8621C67.4202 42.1246 69.3488 41.9078 71.0142 41.1063L70.7427 40.4632Z" fill="#00D9E8"/>
<path d="M50.3252 39.8762C50.6261 39.6179 50.6917 39.1553 50.4718 38.843C50.2518 38.5307 49.8295 38.4869 49.5286 38.7452L49.9269 39.3107L50.3252 39.8762ZM41.4336 39.7347C41.1479 39.4934 40.7222 39.5617 40.4828 39.8873C40.2433 40.213 40.2808 40.6726 40.5665 40.9139L41 40.3243L41.4336 39.7347ZM49.9269 39.3107L49.5286 38.7452C48.311 39.7906 46.7267 40.4314 45.2018 40.6019C43.6657 40.7736 42.2911 40.4591 41.4336 39.7347L41 40.3243L40.5665 40.9139C41.7672 41.9282 43.5168 42.2567 45.2599 42.0618C47.0142 41.8657 48.8643 41.1303 50.3252 39.8762L49.9269 39.3107Z" fill="#00D9E8"/>
<path d="M24 72L17 72C15.8954 72 15 71.1046 15 70L15 57C15 55.8954 15.8954 55 17 55L24 55L24 72Z" fill="#00BDD1"/>
<path d="M91 72L98 72C99.1046 72 100 71.1046 100 70L100 57C100 55.8954 99.1046 55 98 55L91 55L91 72Z" fill="#00BDD1"/>
<path d="M51 36.1228C51 35.5598 51.5268 35.0198 52.4645 34.6218C53.4021 34.2237 54.6739 34 56 34C57.3261 34 58.5979 34.2237 59.5355 34.6218C60.4732 35.0199 61 35.5598 61 36.1228C61 37.2924 51 37.2924 51 36.1228Z" fill="#00D9E8"/>
<g clip-path="url(#clip0_731_75)">
<path d="M11 25.674V3.784C11 2.78042 12.0752 1.81795 13.9891 1.10831C15.9029 0.39867 18.4987 0 21.2053 0L89.7947 0C91.1348 0 92.4619 0.0978761 93.7001 0.28804C94.9382 0.478204 96.0633 0.756931 97.0109 1.10831C97.9586 1.45968 98.7103 1.87683 99.2232 2.33593C99.736 2.79502 100 3.28708 100 3.784V29.216C100 29.7129 99.736 30.205 99.2232 30.6641C98.7103 31.1232 97.9586 31.5403 97.0109 31.8917C96.0633 32.2431 94.9382 32.5218 93.7001 32.712C92.4619 32.9021 91.1348 33 89.7947 33H21.2053C19.8652 33 18.5381 32.9021 17.2999 32.712C16.0618 32.5218 14.9367 32.2431 13.9891 31.8917C13.0414 31.5403 12.2897 31.1232 11.7768 30.6641C11.264 30.205 11 29.7129 11 29.216V25.674Z" fill="#66AD09"/>
<path d="M89.7947 33H21.2054C19.8652 33 18.5382 32.9021 17.3 32.712C16.0618 32.5218 14.9368 32.2431 13.9891 31.8917C13.0415 31.5403 12.2898 31.1232 11.7769 30.6641C11.264 30.205 11.0001 29.7129 11.0001 29.216V3.78401C10.9909 3.28609 11.2484 2.79246 11.7577 2.33173C12.2669 1.87099 13.0178 1.45233 13.9667 1.10001L97.0334 31.9C96.0832 32.2519 94.9541 32.5303 93.7115 32.7191C92.4689 32.9079 91.1376 33.0034 89.7947 33Z" fill="#5FA108"/>
<path d="M62.0032 6H48.9968C46.7894 6 45 7.78943 45 9.99681V23.0032C45 25.2106 46.7894 27 48.9968 27H62.0032C64.2106 27 66 25.2106 66 23.0032V9.99681C66 7.78943 64.2106 6 62.0032 6Z" fill="#70B812"/>
<path d="M61.3928 7H49.6072C47.615 7 46 8.61501 46 10.6072V22.3928C46 24.385 47.615 26 49.6072 26H61.3928C63.385 26 65 24.385 65 22.3928V10.6072C65 8.61501 63.385 7 61.3928 7Z" fill="#5FA108"/>
<path d="M63 16.5C63 12.3579 59.6421 9 55.5 9C51.3579 9 48 12.3579 48 16.5C48 20.6421 51.3579 24 55.5 24C59.6421 24 63 20.6421 63 16.5Z" fill="#66AD09"/>
<path d="M61 16.5C61 13.4624 58.5376 11 55.5 11C52.4624 11 50 13.4624 50 16.5C50 19.5376 52.4624 22 55.5 22C58.5376 22 61 19.5376 61 16.5Z" fill="#78D400"/>
<path d="M57.0052 13H56.9948C55.8931 13 55 13.8931 55 14.9948V15.0052C55 16.1069 55.8931 17 56.9948 17H57.0052C58.1069 17 59 16.1069 59 15.0052V14.9948C59 13.8931 58.1069 13 57.0052 13Z" fill="#9BE835"/>
</g>
<defs>
<clipPath id="clip0_731_75">
<rect width="89" height="33" fill="white" transform="translate(11)"/>
</clipPath>
</defs>
</svg>
